<svg width="42" height="40" viewBox="0 0 42 40" fill="none" xmlns="http://www.w3.org/2000/svg">
<path fill-rule="evenodd" clip-rule="evenodd" d="M3.32232 19.1421L19.2322 3.23223C20.2085 2.25592 21.7914 2.25592 22.7678 3.23223L38.6777 19.1421C39.654 20.1184 39.654 21.7014 38.6777 22.6777C37.7013 23.654 36.1184 23.654 35.1421 22.6777L23.5 11.0355V35C23.5 36.3807 22.3807 37.5 21 37.5C19.6193 37.5 18.5 36.3807 18.5 35V11.0355L6.85785 22.6777C5.88154 23.654 4.29863 23.654 3.32232 22.6777C2.34601 21.7014 2.34601 20.1184 3.32232 19.1421Z" fill="white"/>
<path fill-rule="evenodd" clip-rule="evenodd" d="M1.90811 17.7279L17.818 1.81802C19.5754 0.0606575 22.4246 0.0606575 24.182 1.81802L40.0919 17.7279C41.8492 19.4853 41.8492 22.3345 40.0919 24.0919C38.3345 25.8492 35.4853 25.8492 33.7279 24.0919L25.5 15.864V35C25.5 37.4853 23.4853 39.5 21 39.5C18.5147 39.5 16.5 37.4853 16.5 35V15.864L8.27207 24.0919C6.51471 25.8492 3.66547 25.8492 1.90811 24.0919C0.150748 22.3345 0.150748 19.4853 1.90811 17.7279ZM6.85785 22.6777C5.88154 23.654 4.29863 23.654 3.32232 22.6777C2.34601 21.7014 2.34601 20.1184 3.32232 19.1421L19.2322 3.23223C20.2085 2.25592 21.7914 2.25592 22.7678 3.23223L38.6777 19.1421C39.654 20.1184 39.654 21.7014 38.6777 22.6777C37.7013 23.654 36.1184 23.654 35.1421 22.6777L23.5 11.0355V35C23.5 36.3807 22.3807 37.5 21 37.5C19.6193 37.5 18.5 36.3807 18.5 35V11.0355L6.85785 22.6777Z" fill="white"/>
</svg>
