<svg width="353" height="173" viewBox="0 0 353 173" fill="none" xmlns="http://www.w3.org/2000/svg">
<g filter="url(#filter0_d)">
<path d="M28.4625 141.4C19.8625 141.4 13.7958 137.5 10.2625 129.7C6.79583 121.9 5.0625 112.3 5.0625 100.9C5.0625 94.7667 5.8625 88.8667 7.4625 83.2C9.0625 77.5333 11.6292 72.8667 15.1625 69.2C18.7625 65.4667 23.2958 63.6 28.7625 63.6C32.9625 63.6 36.6292 64.9 39.7625 67.5C42.9625 70.1 45.3958 73.5 47.0625 77.7C48.7958 81.8333 49.6625 86.1667 49.6625 90.7L35.4625 91.4C35.4625 88.4 34.9625 85 33.9625 81.2C32.9625 77.3333 30.9625 75.4 27.9625 75.4C24.8292 75.4 22.6625 77.9 21.4625 82.9C20.2625 87.9 19.6625 93.9 19.6625 100.9C19.6625 109.567 20.3292 116.533 21.6625 121.8C22.9958 127 25.5625 129.6 29.3625 129.6C32.0292 129.6 33.9292 128.033 35.0625 124.9C36.1958 121.7 36.9292 117.833 37.2625 113.3L49.7625 114.5C49.7625 119.3 48.9625 123.767 47.3625 127.9C45.7625 131.967 43.3625 135.233 40.1625 137.7C36.9625 140.167 33.0625 141.4 28.4625 141.4ZM54.5086 140L70.3086 65.9L91.2086 65L107.409 139.4L91.4086 140L88.7086 123.9H70.8086L67.6086 140H54.5086ZM73.5086 111.9H86.0086L79.1086 76L73.5086 111.9ZM165.684 140.6V84.3L151.684 140H142.684L127.584 84.1V139.4L115.484 140V65.7L136.984 65.1L149.384 111.5L161.284 66.8L180.884 65.6V139.4L165.684 140.6ZM194.879 140V65H232.979L231.779 76.7H209.579V94.6H225.379L225.279 107.2H209.579V128.3H233.779L232.579 140H194.879ZM263.519 107.1H257.819V139.4L243.219 140.6V65.6L261.019 65C269.619 65 276.352 66.7333 281.219 70.2C286.085 73.6 288.519 78.8333 288.519 85.9C288.519 90.5667 287.585 94.4 285.719 97.4C283.919 100.4 281.285 102.9 277.819 104.9L284.519 121.2L291.319 137.4L276.919 141.3L263.519 107.1ZM262.819 96.3C266.285 96.3 268.985 95.6 270.919 94.2C272.919 92.7333 273.919 90 273.919 86C273.919 79.8 270.852 76.7 264.719 76.7H257.819V96.3H262.819ZM293.962 140L309.762 65.9L330.662 65L346.862 139.4L330.862 140L328.162 123.9H310.262L307.062 140H293.962ZM312.962 111.9H325.462L318.562 76L312.962 111.9Z" fill="#6874E8"/>
<path d="M10.2625 129.7L9.34867 130.106L9.3516 130.113L10.2625 129.7ZM7.4625 83.2L8.42487 83.4717L8.42487 83.4717L7.4625 83.2ZM15.1625 69.2L14.4427 68.5059L14.4424 68.5061L15.1625 69.2ZM39.7625 67.5L39.1239 68.2696L39.1319 68.2761L39.7625 67.5ZM47.0625 77.7L46.133 78.0688L46.1366 78.0778L46.1403 78.0867L47.0625 77.7ZM49.6625 90.7L49.7117 91.6988L50.6625 91.6519V90.7H49.6625ZM35.4625 91.4H34.4625V92.4505L35.5117 92.3988L35.4625 91.4ZM33.9625 81.2L32.9943 81.4504L32.9954 81.4545L33.9625 81.2ZM21.4625 82.9L20.4901 82.6666L20.4901 82.6666L21.4625 82.9ZM21.6625 121.8L20.6931 122.045L20.6938 122.048L21.6625 121.8ZM35.0625 124.9L36.0029 125.24L36.0051 125.234L35.0625 124.9ZM37.2625 113.3L37.3581 112.305L36.3402 112.207L36.2652 113.227L37.2625 113.3ZM49.7625 114.5H50.7625V113.591L49.8581 113.505L49.7625 114.5ZM47.3625 127.9L48.2931 128.266L48.2951 128.261L47.3625 127.9ZM40.1625 137.7L40.773 138.492L40.773 138.492L40.1625 137.7ZM28.4625 140.4C24.3169 140.4 20.8465 139.462 18.0033 137.634C15.1603 135.806 12.8757 133.045 11.1734 129.287L9.3516 130.113C11.1827 134.155 13.698 137.244 16.9217 139.316C20.1452 141.388 24.0081 142.4 28.4625 142.4V140.4ZM11.1763 129.294C7.78213 121.657 6.0625 112.205 6.0625 100.9H4.0625C4.0625 112.395 5.80954 122.143 9.34869 130.106L11.1763 129.294ZM6.0625 100.9C6.0625 94.8547 6.85086 89.0464 8.42487 83.4717L6.50013 82.9283C4.87414 88.687 4.0625 94.6786 4.0625 100.9H6.0625ZM8.42487 83.4717C9.98715 77.9386 12.4803 73.4246 15.8826 69.8939L14.4424 68.5061C10.7781 72.3087 8.13785 77.128 6.50013 82.9283L8.42487 83.4717ZM15.8823 69.8941C19.2828 66.3678 23.5509 64.6 28.7625 64.6V62.6C23.0407 62.6 18.2422 64.5656 14.4427 68.5059L15.8823 69.8941ZM28.7625 64.6C32.7373 64.6 36.1761 65.8235 39.1239 68.2696L40.4011 66.7304C37.0822 63.9765 33.1877 62.6 28.7625 62.6V64.6ZM39.1319 68.2761C42.1866 70.758 44.5233 74.0123 46.133 78.0688L47.992 77.3312C46.2684 72.9877 43.7384 69.442 40.3931 66.7239L39.1319 68.2761ZM46.1403 78.0867C47.8217 82.0962 48.6625 86.2979 48.6625 90.7H50.6625C50.6625 86.0354 49.77 81.5705 47.9847 77.3133L46.1403 78.0867ZM49.6133 89.7012L35.4133 90.4012L35.5117 92.3988L49.7117 91.6988L49.6133 89.7012ZM36.4625 91.4C36.4625 88.2923 35.9451 84.8045 34.9296 80.9455L32.9954 81.4545C33.9799 85.1955 34.4625 88.5077 34.4625 91.4H36.4625ZM34.9306 80.9496C34.4035 78.9115 33.5857 77.2699 32.4075 76.131C31.2056 74.9691 29.6995 74.4 27.9625 74.4V76.4C29.2255 76.4 30.2194 76.7975 31.0175 77.569C31.8393 78.3635 32.5215 79.6219 32.9944 81.4504L34.9306 80.9496ZM27.9625 74.4C26.0879 74.4 24.493 75.1648 23.2318 76.6201C22.0011 78.0401 21.1088 80.089 20.4901 82.6666L22.4349 83.1334C23.0163 80.711 23.8072 79.0099 24.7432 77.9299C25.6486 76.8852 26.7038 76.4 27.9625 76.4V74.4ZM20.4901 82.6666C19.2665 87.7649 18.6625 93.8476 18.6625 100.9H20.6625C20.6625 93.9524 21.2585 88.0351 22.4349 83.1334L20.4901 82.6666ZM18.6625 100.9C18.6625 109.607 19.3311 116.666 20.6931 122.045L22.6319 121.555C21.3272 116.401 20.6625 109.527 20.6625 100.9H18.6625ZM20.6938 122.048C21.3852 124.745 22.4231 126.881 23.8758 128.353C25.3553 129.851 27.207 130.6 29.3625 130.6V128.6C27.718 128.6 26.3863 128.049 25.2992 126.947C24.1852 125.819 23.2731 124.055 22.6312 121.552L20.6938 122.048ZM29.3625 130.6C30.9073 130.6 32.2793 130.14 33.4237 129.197C34.5524 128.266 35.396 126.918 36.0029 125.24L34.1221 124.56C33.5957 126.015 32.9226 127.017 32.1513 127.653C31.3957 128.276 30.4843 128.6 29.3625 128.6V130.6ZM36.0051 125.234C37.1763 121.927 37.922 117.968 38.2598 113.373L36.2652 113.227C35.9363 117.699 35.2153 121.473 34.1199 124.566L36.0051 125.234ZM37.1669 114.295L49.6669 115.495L49.8581 113.505L37.3581 112.305L37.1669 114.295ZM48.7625 114.5C48.7625 119.187 47.9818 123.53 46.4299 127.539L48.2951 128.261C49.9432 124.003 50.7625 119.413 50.7625 114.5H48.7625ZM46.4319 127.534C44.8926 131.446 42.5971 134.561 39.552 136.908L40.773 138.492C44.1279 135.906 46.6324 132.487 48.2931 128.266L46.4319 127.534ZM39.552 136.908C36.5508 139.221 32.8737 140.4 28.4625 140.4V142.4C33.2513 142.4 37.3742 141.112 40.773 138.492L39.552 136.908ZM54.5086 140L53.5306 139.791L53.2729 141H54.5086V140ZM70.3086 65.9L70.2656 64.9009L69.492 64.9342L69.3306 65.6915L70.3086 65.9ZM91.2086 65L92.1857 64.7872L92.0066 63.9647L91.1656 64.0009L91.2086 65ZM107.409 139.4L107.446 140.399L108.64 140.355L108.386 139.187L107.409 139.4ZM91.4086 140L90.4224 140.165L90.5677 141.032L91.4461 140.999L91.4086 140ZM88.7086 123.9L89.6948 123.735L89.5549 122.9H88.7086V123.9ZM70.8086 123.9V122.9H69.9878L69.8278 123.705L70.8086 123.9ZM67.6086 140V141H68.4294L68.5894 140.195L67.6086 140ZM73.5086 111.9L72.5205 111.746L72.3405 112.9H73.5086V111.9ZM86.0086 111.9V112.9H87.2191L86.9906 111.711L86.0086 111.9ZM79.1086 76L80.0906 75.8112L78.1205 75.8459L79.1086 76ZM55.4866 140.209L71.2866 66.1085L69.3306 65.6915L53.5306 139.791L55.4866 140.209ZM70.3516 66.8991L91.2516 65.9991L91.1656 64.0009L70.2656 64.9009L70.3516 66.8991ZM90.2315 65.2128L106.431 139.613L108.386 139.187L92.1857 64.7872L90.2315 65.2128ZM107.371 138.401L91.3711 139.001L91.4461 140.999L107.446 140.399L107.371 138.401ZM92.3948 139.835L89.6948 123.735L87.7224 124.065L90.4224 140.165L92.3948 139.835ZM88.7086 122.9H70.8086V124.9H88.7086V122.9ZM69.8278 123.705L66.6278 139.805L68.5894 140.195L71.7894 124.095L69.8278 123.705ZM67.6086 139H54.5086V141H67.6086V139ZM73.5086 112.9H86.0086V110.9H73.5086V112.9ZM86.9906 111.711L80.0906 75.8112L78.1266 76.1887L85.0266 112.089L86.9906 111.711ZM78.1205 75.8459L72.5205 111.746L74.4966 112.054L80.0966 76.1541L78.1205 75.8459ZM165.684 140.6H164.684V141.682L165.763 141.597L165.684 140.6ZM165.684 84.3H166.684L164.715 84.0562L165.684 84.3ZM151.684 140V141H152.464L152.654 140.244L151.684 140ZM142.684 140L141.719 140.261L141.919 141H142.684V140ZM127.584 84.1L128.55 83.8392L126.584 84.1H127.584ZM127.584 139.4L127.634 140.399L128.584 140.352V139.4H127.584ZM115.484 140H114.484V141.051L115.534 140.999L115.484 140ZM115.484 65.7L115.456 64.7004L114.484 64.7275V65.7H115.484ZM136.984 65.1L137.95 64.8418L137.746 64.0783L136.956 64.1004L136.984 65.1ZM149.384 111.5L148.418 111.758L149.386 115.38L150.351 111.757L149.384 111.5ZM161.284 66.8L161.223 65.8019L160.504 65.8459L160.318 66.5427L161.284 66.8ZM180.884 65.6H181.884V64.5369L180.823 64.6019L180.884 65.6ZM180.884 139.4L180.963 140.397L181.884 140.324V139.4H180.884ZM166.684 140.6V84.3H164.684V140.6H166.684ZM164.715 84.0562L150.715 139.756L152.654 140.244L166.654 84.5438L164.715 84.0562ZM151.684 139H142.684V141H151.684V139ZM143.65 139.739L128.55 83.8392L126.619 84.3608L141.719 140.261L143.65 139.739ZM126.584 84.1V139.4H128.584V84.1H126.584ZM127.535 138.401L115.435 139.001L115.534 140.999L127.634 140.399L127.535 138.401ZM116.484 140V65.7H114.484V140H116.484ZM115.512 66.6996L137.012 66.0996L136.956 64.1004L115.456 64.7004L115.512 66.6996ZM136.018 65.3582L148.418 111.758L150.35 111.242L137.95 64.8418L136.018 65.3582ZM150.351 111.757L162.251 67.0573L160.318 66.5427L148.418 111.243L150.351 111.757ZM161.345 67.7981L180.945 66.5981L180.823 64.6019L161.223 65.8019L161.345 67.7981ZM179.884 65.6V139.4H181.884V65.6H179.884ZM180.806 138.403L165.606 139.603L165.763 141.597L180.963 140.397L180.806 138.403ZM194.879 140H193.879V141H194.879V140ZM194.879 65V64H193.879V65H194.879ZM232.979 65L233.974 65.102L234.087 64H232.979V65ZM231.779 76.7V77.7H232.682L232.774 76.802L231.779 76.7ZM209.579 76.7V75.7H208.579V76.7H209.579ZM209.579 94.6H208.579V95.6H209.579V94.6ZM225.379 94.6L226.379 94.6079L226.387 93.6H225.379V94.6ZM225.279 107.2V108.2H226.271L226.279 107.208L225.279 107.2ZM209.579 107.2V106.2H208.579V107.2H209.579ZM209.579 128.3H208.579V129.3H209.579V128.3ZM233.779 128.3L234.774 128.402L234.887 127.3H233.779V128.3ZM232.579 140V141H233.482L233.574 140.102L232.579 140ZM195.879 140V65H193.879V140H195.879ZM194.879 66H232.979V64H194.879V66ZM231.984 64.898L230.784 76.598L232.774 76.802L233.974 65.102L231.984 64.898ZM231.779 75.7H209.579V77.7H231.779V75.7ZM208.579 76.7V94.6H210.579V76.7H208.579ZM209.579 95.6H225.379V93.6H209.579V95.6ZM224.379 94.5921L224.279 107.192L226.279 107.208L226.379 94.6079L224.379 94.5921ZM225.279 106.2H209.579V108.2H225.279V106.2ZM208.579 107.2V128.3H210.579V107.2H208.579ZM209.579 129.3H233.779V127.3H209.579V129.3ZM232.784 128.198L231.584 139.898L233.574 140.102L234.774 128.402L232.784 128.198ZM232.579 139H194.879V141H232.579V139ZM263.519 107.1L264.45 106.735L264.201 106.1H263.519V107.1ZM257.819 107.1V106.1H256.819V107.1H257.819ZM257.819 139.4L257.901 140.397L258.819 140.321V139.4H257.819ZM243.219 140.6H242.219V141.686L243.301 141.597L243.219 140.6ZM243.219 65.6L243.185 64.6006L242.219 64.6331V65.6H243.219ZM261.019 65V64H261.002L260.985 64.0006L261.019 65ZM281.219 70.2L280.639 71.0145L280.646 71.0198L281.219 70.2ZM285.719 97.4L284.87 96.8717L284.865 96.8786L284.861 96.8855L285.719 97.4ZM277.819 104.9L277.319 104.034L276.561 104.471L276.894 105.28L277.819 104.9ZM284.519 121.2L283.594 121.58L283.597 121.587L284.519 121.2ZM291.319 137.4L291.58 138.365L292.683 138.067L292.241 137.013L291.319 137.4ZM276.919 141.3L275.988 141.665L276.315 142.5L277.18 142.265L276.919 141.3ZM270.919 94.2L271.505 95.01L271.51 95.0064L270.919 94.2ZM257.819 76.7V75.7H256.819V76.7H257.819ZM257.819 96.3H256.819V97.3H257.819V96.3ZM263.519 106.1H257.819V108.1H263.519V106.1ZM256.819 107.1V139.4H258.819V107.1H256.819ZM257.737 138.403L243.137 139.603L243.301 141.597L257.901 140.397L257.737 138.403ZM244.219 140.6V65.6H242.219V140.6H244.219ZM243.252 66.5994L261.052 65.9994L260.985 64.0006L243.185 64.6006L243.252 66.5994ZM261.019 66C269.498 66 276.001 67.711 280.639 71.0145L281.799 69.3855C276.703 65.7557 269.739 64 261.019 64V66ZM280.646 71.0198C285.192 74.1954 287.519 79.089 287.519 85.9H289.519C289.519 78.5777 286.979 73.0046 281.791 69.3802L280.646 71.0198ZM287.519 85.9C287.519 90.4384 286.611 94.0735 284.87 96.8717L286.568 97.9283C288.56 94.7265 289.519 90.6949 289.519 85.9H287.519ZM284.861 96.8855C283.161 99.7199 280.66 102.106 277.319 104.034L278.318 105.766C281.911 103.694 284.677 101.08 286.576 97.9145L284.861 96.8855ZM276.894 105.28L283.594 121.58L285.444 120.82L278.744 104.52L276.894 105.28ZM283.597 121.587L290.397 137.787L292.241 137.013L285.441 120.813L283.597 121.587ZM291.057 136.435L276.657 140.335L277.18 142.265L291.58 138.365L291.057 136.435ZM277.85 140.935L264.45 106.735L262.588 107.465L275.988 141.665L277.85 140.935ZM262.819 97.3C266.405 97.3 269.34 96.578 271.505 95.0099L270.332 93.3901C268.631 94.622 266.166 95.3 262.819 95.3V97.3ZM271.51 95.0064C273.893 93.2592 274.919 90.1215 274.919 86H272.919C272.919 89.8785 271.945 92.2074 270.327 93.3936L271.51 95.0064ZM274.919 86C274.919 82.7486 274.114 80.1258 272.33 78.3217C270.543 76.5157 267.942 75.7 264.719 75.7V77.7C267.629 77.7 269.628 78.4343 270.908 79.7283C272.19 81.0242 272.919 83.0514 272.919 86H274.919ZM264.719 75.7H257.819V77.7H264.719V75.7ZM256.819 76.7V96.3H258.819V76.7H256.819ZM257.819 97.3H262.819V95.3H257.819V97.3ZM293.962 140L292.984 139.791L292.726 141H293.962V140ZM309.762 65.9L309.719 64.9009L308.945 64.9342L308.784 65.6915L309.762 65.9ZM330.662 65L331.639 64.7872L331.46 63.9647L330.619 64.0009L330.662 65ZM346.862 139.4L346.899 140.399L348.093 140.355L347.839 139.187L346.862 139.4ZM330.862 140L329.875 140.165L330.021 141.032L330.899 140.999L330.862 140ZM328.162 123.9L329.148 123.735L329.008 122.9H328.162V123.9ZM310.262 123.9V122.9H309.441L309.281 123.705L310.262 123.9ZM307.062 140V141H307.883L308.043 140.195L307.062 140ZM312.962 111.9L311.974 111.746L311.794 112.9H312.962V111.9ZM325.462 111.9V112.9H326.672L326.444 111.711L325.462 111.9ZM318.562 76L319.544 75.8112L317.574 75.8459L318.562 76ZM294.94 140.209L310.74 66.1085L308.784 65.6915L292.984 139.791L294.94 140.209ZM309.805 66.8991L330.705 65.9991L330.619 64.0009L309.719 64.9009L309.805 66.8991ZM329.685 65.2128L345.885 139.613L347.839 139.187L331.639 64.7872L329.685 65.2128ZM346.824 138.401L330.824 139.001L330.899 140.999L346.899 140.399L346.824 138.401ZM331.848 139.835L329.148 123.735L327.175 124.065L329.875 140.165L331.848 139.835ZM328.162 122.9H310.262V124.9H328.162V122.9ZM309.281 123.705L306.081 139.805L308.043 140.195L311.243 124.095L309.281 123.705ZM307.062 139H293.962V141H307.062V139ZM312.962 112.9H325.462V110.9H312.962V112.9ZM326.444 111.711L319.544 75.8112L317.58 76.1887L324.48 112.089L326.444 111.711ZM317.574 75.8459L311.974 111.746L313.95 112.054L319.55 76.1541L317.574 75.8459Z" fill="#25283D"/>
<path d="M126.785 28.88C125.958 28.5867 125.212 28.44 124.545 28.44C123.612 28.44 122.825 28.6933 122.185 29.2C121.572 29.68 121.158 30.3067 120.945 31.08V44H115.745V24H119.785L120.385 26.64H120.545C120.998 25.6533 121.612 24.8933 122.385 24.36C123.158 23.8267 124.065 23.56 125.105 23.56C125.798 23.56 126.585 23.7067 127.465 24L126.785 28.88ZM145.768 42.28C144.968 42.92 143.875 43.4667 142.488 43.92C141.128 44.3467 139.675 44.56 138.128 44.56C134.902 44.56 132.542 43.6267 131.048 41.76C129.555 39.8667 128.808 37.28 128.808 34C128.808 30.48 129.648 27.84 131.328 26.08C133.008 24.32 135.368 23.44 138.408 23.44C139.422 23.44 140.408 23.5733 141.368 23.84C142.328 24.1067 143.182 24.5467 143.928 25.16C144.675 25.7733 145.275 26.6 145.728 27.64C146.182 28.68 146.408 29.9733 146.408 31.52C146.408 32.08 146.368 32.68 146.288 33.32C146.235 33.96 146.142 34.6267 146.008 35.32H134.008C134.088 37 134.515 38.2667 135.288 39.12C136.088 39.9733 137.368 40.4 139.128 40.4C140.222 40.4 141.195 40.24 142.048 39.92C142.928 39.5733 143.595 39.2267 144.048 38.88L145.768 42.28ZM138.328 27.6C136.968 27.6 135.955 28.0133 135.288 28.84C134.648 29.64 134.262 30.72 134.128 32.08H141.568C141.675 30.64 141.448 29.5333 140.888 28.76C140.355 27.9867 139.502 27.6 138.328 27.6ZM161.441 44V33.12C161.441 31.28 161.267 29.9733 160.921 29.2C160.574 28.4267 159.854 28.04 158.761 28.04C157.854 28.04 157.121 28.2933 156.561 28.8C156.001 29.28 155.574 29.9067 155.281 30.68V44H150.081V24H154.121L154.721 26.64H154.881C155.494 25.7867 156.267 25.04 157.201 24.4C158.161 23.76 159.387 23.44 160.881 23.44C162.161 23.44 163.201 23.7067 164.001 24.24C164.827 24.7467 165.467 25.6133 165.921 26.84C166.534 25.8 167.321 24.9733 168.281 24.36C169.241 23.7467 170.401 23.44 171.761 23.44C172.881 23.44 173.827 23.5733 174.601 23.84C175.401 24.1067 176.041 24.5733 176.521 25.24C177.027 25.88 177.401 26.7467 177.641 27.84C177.881 28.9333 178.001 30.32 178.001 32V44H172.801V32.76C172.801 31.1867 172.627 30.0133 172.281 29.24C171.961 28.44 171.227 28.04 170.081 28.04C169.147 28.04 168.401 28.2933 167.841 28.8C167.307 29.3067 166.907 30 166.641 30.88V44H161.441ZM181.308 34C181.308 30.6133 182.135 28.0133 183.788 26.2C185.442 24.36 187.762 23.44 190.748 23.44C192.348 23.44 193.735 23.6933 194.908 24.2C196.082 24.7067 197.055 25.4267 197.828 26.36C198.602 27.2667 199.175 28.3733 199.548 29.68C199.948 30.9867 200.148 32.4267 200.148 34C200.148 37.3867 199.322 40 197.668 41.84C196.042 43.6533 193.735 44.56 190.748 44.56C189.148 44.56 187.762 44.3067 186.588 43.8C185.415 43.2933 184.428 42.5867 183.628 41.68C182.855 40.7467 182.268 39.6267 181.868 38.32C181.495 37.0133 181.308 35.5733 181.308 34ZM186.668 34C186.668 34.88 186.748 35.6933 186.908 36.44C187.068 37.1867 187.308 37.84 187.628 38.4C187.948 38.96 188.362 39.4 188.868 39.72C189.402 40.0133 190.028 40.16 190.748 40.16C192.108 40.16 193.122 39.6667 193.788 38.68C194.455 37.6933 194.788 36.1333 194.788 34C194.788 32.16 194.482 30.68 193.868 29.56C193.255 28.4133 192.215 27.84 190.748 27.84C189.468 27.84 188.468 28.32 187.748 29.28C187.028 30.24 186.668 31.8133 186.668 34ZM201.673 24H204.433V20.24L209.633 18.76V24H214.513V28.4H209.633V36.08C209.633 37.4667 209.766 38.4667 210.033 39.08C210.326 39.6667 210.859 39.96 211.633 39.96C212.166 39.96 212.619 39.9067 212.993 39.8C213.393 39.6933 213.833 39.5333 214.313 39.32L215.233 43.32C214.513 43.6667 213.673 43.96 212.713 44.2C211.753 44.44 210.779 44.56 209.793 44.56C207.953 44.56 206.593 44.0933 205.713 43.16C204.859 42.2 204.433 40.64 204.433 38.48V28.4H201.673V24ZM233.503 42.28C232.703 42.92 231.609 43.4667 230.223 43.92C228.863 44.3467 227.409 44.56 225.863 44.56C222.636 44.56 220.276 43.6267 218.783 41.76C217.289 39.8667 216.543 37.28 216.543 34C216.543 30.48 217.383 27.84 219.063 26.08C220.743 24.32 223.103 23.44 226.143 23.44C227.156 23.44 228.143 23.5733 229.103 23.84C230.063 24.1067 230.916 24.5467 231.663 25.16C232.409 25.7733 233.009 26.6 233.463 27.64C233.916 28.68 234.143 29.9733 234.143 31.52C234.143 32.08 234.103 32.68 234.023 33.32C233.969 33.96 233.876 34.6267 233.743 35.32H221.743C221.823 37 222.249 38.2667 223.023 39.12C223.823 39.9733 225.103 40.4 226.863 40.4C227.956 40.4 228.929 40.24 229.783 39.92C230.663 39.5733 231.329 39.2267 231.783 38.88L233.503 42.28ZM226.063 27.6C224.703 27.6 223.689 28.0133 223.023 28.84C222.383 29.64 221.996 30.72 221.863 32.08H229.303C229.409 30.64 229.183 29.5333 228.623 28.76C228.089 27.9867 227.236 27.6 226.063 27.6Z" fill="#6874E8"/>
<path d="M126.785 28.88L126.45 29.8224L127.606 30.2325L127.775 29.018L126.785 28.88ZM122.185 29.2L122.801 29.9875L122.806 29.984L122.185 29.2ZM120.945 31.08L119.981 30.8141L119.945 30.9446V31.08H120.945ZM120.945 44V45H121.945V44H120.945ZM115.745 44H114.745V45H115.745V44ZM115.745 24V23H114.745V24H115.745ZM119.785 24L120.76 23.7784L120.583 23H119.785V24ZM120.385 26.64L119.41 26.8616L119.587 27.64H120.385V26.64ZM120.545 26.64V27.64H121.186L121.454 27.0575L120.545 26.64ZM122.385 24.36L122.953 25.1832L122.385 24.36ZM127.465 24L128.455 24.138L128.57 23.3143L127.781 23.0513L127.465 24ZM127.119 27.9376C126.217 27.6175 125.355 27.44 124.545 27.44V29.44C125.068 29.44 125.699 29.5559 126.45 29.8224L127.119 27.9376ZM124.545 27.44C123.42 27.44 122.406 27.7497 121.564 28.416L122.806 29.984C123.244 29.6369 123.803 29.44 124.545 29.44V27.44ZM121.569 28.4125C120.781 29.0288 120.249 29.8408 119.981 30.8141L121.909 31.3459C122.067 30.7726 122.362 30.3312 122.801 29.9875L121.569 28.4125ZM119.945 31.08V44H121.945V31.08H119.945ZM120.945 43H115.745V45H120.945V43ZM116.745 44V24H114.745V44H116.745ZM115.745 25H119.785V23H115.745V25ZM118.81 24.2216L119.41 26.8616L121.36 26.4184L120.76 23.7784L118.81 24.2216ZM120.385 27.64H120.545V25.64H120.385V27.64ZM121.454 27.0575C121.844 26.2084 122.349 25.5994 122.953 25.1832L121.817 23.5368C120.874 24.1873 120.153 25.0983 119.636 26.2225L121.454 27.0575ZM122.953 25.1832C123.541 24.7772 124.245 24.56 125.105 24.56V22.56C123.885 22.56 122.775 22.8761 121.817 23.5368L122.953 25.1832ZM125.105 24.56C125.661 24.56 126.338 24.6786 127.149 24.9487L127.781 23.0513C126.831 22.7347 125.935 22.56 125.105 22.56V24.56ZM126.474 23.862L125.794 28.742L127.775 29.018L128.455 24.138L126.474 23.862ZM145.768 42.28L146.393 43.0609L147.027 42.5534L146.661 41.8286L145.768 42.28ZM142.488 43.92L142.788 44.8742L142.799 44.8705L142.488 43.92ZM131.048 41.76L130.263 42.3793L130.267 42.3847L131.048 41.76ZM131.328 26.08L130.605 25.3895L130.605 25.3895L131.328 26.08ZM141.368 23.84L141.101 24.8035L141.101 24.8035L141.368 23.84ZM145.728 27.64L146.645 27.2404L146.645 27.2404L145.728 27.64ZM146.288 33.32L145.296 33.196L145.293 33.2164L145.292 33.237L146.288 33.32ZM146.008 35.32V36.32H146.834L146.99 35.5088L146.008 35.32ZM134.008 35.32V34.32H132.96L133.009 35.3676L134.008 35.32ZM135.288 39.12L134.547 39.7915L134.553 39.7978L134.559 39.8039L135.288 39.12ZM142.048 39.92L142.399 40.8563L142.407 40.8534L142.415 40.8504L142.048 39.92ZM144.048 38.88L144.941 38.4286L144.397 37.3543L143.441 38.0856L144.048 38.88ZM135.288 28.84L134.51 28.2122L134.507 28.2153L135.288 28.84ZM134.128 32.08L133.133 31.9824L133.025 33.08H134.128V32.08ZM141.568 32.08V33.08H142.497L142.566 32.1539L141.568 32.08ZM140.888 28.76L140.065 29.3277L140.072 29.3372L140.078 29.3465L140.888 28.76ZM145.144 41.4991C144.468 42.0397 143.495 42.5389 142.178 42.9695L142.799 44.8705C144.255 44.3944 145.469 43.8003 146.393 43.0609L145.144 41.4991ZM142.189 42.9659C140.934 43.3597 139.582 43.56 138.128 43.56V45.56C139.768 45.56 141.323 45.3337 142.788 44.8741L142.189 42.9659ZM138.128 43.56C135.092 43.56 133.072 42.6884 131.829 41.1353L130.267 42.3847C132.012 44.5649 134.711 45.56 138.128 45.56V43.56ZM131.833 41.1407C130.522 39.4779 129.808 37.1356 129.808 34H127.808C127.808 37.4244 128.588 40.2554 130.263 42.3793L131.833 41.1407ZM129.808 34C129.808 30.6228 130.615 28.2756 132.052 26.7705L130.605 25.3895C128.682 27.4044 127.808 30.3372 127.808 34H129.808ZM132.052 26.7705C133.498 25.2551 135.569 24.44 138.408 24.44V22.44C135.168 22.44 132.518 23.3849 130.605 25.3895L132.052 26.7705ZM138.408 24.44C139.333 24.44 140.229 24.5615 141.101 24.8035L141.636 22.8765C140.587 22.5852 139.511 22.44 138.408 22.44V24.44ZM141.101 24.8035C141.931 25.0341 142.658 25.4107 143.294 25.9327L144.563 24.3873C143.705 23.6827 142.726 23.1793 141.636 22.8765L141.101 24.8035ZM143.294 25.9327C143.898 26.4296 144.41 27.1193 144.812 28.0396L146.645 27.2404C146.139 26.0807 145.451 25.117 144.563 24.3873L143.294 25.9327ZM144.812 28.0396C145.194 28.9166 145.408 30.0639 145.408 31.52H147.408C147.408 29.8828 147.169 28.4434 146.645 27.2404L144.812 28.0396ZM145.408 31.52C145.408 32.0329 145.372 32.5911 145.296 33.196L147.281 33.444C147.365 32.7689 147.408 32.1271 147.408 31.52H145.408ZM145.292 33.237C145.242 33.8382 145.154 34.4694 145.026 35.1312L146.99 35.5088C147.13 34.7839 147.228 34.0818 147.285 33.403L145.292 33.237ZM146.008 34.32H134.008V36.32H146.008V34.32ZM133.009 35.3676C133.096 37.1756 133.561 38.7027 134.547 39.7915L136.029 38.4485C135.469 37.8307 135.081 36.8244 135.007 35.2724L133.009 35.3676ZM134.559 39.8039C135.626 40.9418 137.231 41.4 139.128 41.4V39.4C137.506 39.4 136.551 39.0048 136.018 38.4361L134.559 39.8039ZM139.128 41.4C140.318 41.4 141.414 41.2259 142.399 40.8563L141.697 38.9837C140.976 39.2541 140.125 39.4 139.128 39.4V41.4ZM142.415 40.8504C143.332 40.4889 144.096 40.1021 144.656 39.6744L143.441 38.0856C143.093 38.3513 142.524 38.6577 141.682 38.9896L142.415 40.8504ZM143.156 39.3314L144.876 42.7314L146.661 41.8286L144.941 38.4286L143.156 39.3314ZM138.328 26.6C136.758 26.6 135.418 27.0868 134.51 28.2122L136.067 29.4678C136.492 28.9399 137.179 28.6 138.328 28.6V26.6ZM134.507 28.2153C133.712 29.2093 133.279 30.4926 133.133 31.9824L135.124 32.1776C135.244 30.9474 135.584 30.0707 136.069 29.4647L134.507 28.2153ZM134.128 33.08H141.568V31.08H134.128V33.08ZM142.566 32.1539C142.681 30.5944 142.452 29.2147 141.698 28.1735L140.078 29.3465C140.444 29.852 140.669 30.6856 140.571 32.0061L142.566 32.1539ZM141.711 28.1923C140.945 27.0803 139.738 26.6 138.328 26.6V28.6C139.265 28.6 139.765 28.893 140.065 29.3277L141.711 28.1923ZM161.441 44H160.441V45H161.441V44ZM160.921 29.2L160.008 29.6091L160.008 29.6091L160.921 29.2ZM156.561 28.8L157.212 29.5593L157.222 29.5505L157.232 29.5415L156.561 28.8ZM155.281 30.68L154.346 30.3253L154.281 30.4967V30.68H155.281ZM155.281 44V45H156.281V44H155.281ZM150.081 44H149.081V45H150.081V44ZM150.081 24V23H149.081V24H150.081ZM154.121 24L155.096 23.7784L154.919 23H154.121V24ZM154.721 26.64L153.746 26.8616L153.923 27.64H154.721V26.64ZM154.881 26.64V27.64H155.394L155.693 27.2236L154.881 26.64ZM157.201 24.4L156.646 23.5679L156.635 23.5753L157.201 24.4ZM164.001 24.24L163.446 25.072L163.462 25.0826L163.478 25.0926L164.001 24.24ZM165.921 26.84L164.983 27.1866L165.713 29.1615L166.782 27.348L165.921 26.84ZM168.281 24.36L167.742 23.5173L167.742 23.5173L168.281 24.36ZM174.601 23.84L174.275 24.7854L174.285 24.7887L174.601 23.84ZM176.521 25.24L175.709 25.8243L175.723 25.8428L175.737 25.8607L176.521 25.24ZM178.001 44V45H179.001V44H178.001ZM172.801 44H171.801V45H172.801V44ZM172.281 29.24L171.352 29.6114L171.36 29.6304L171.368 29.6491L172.281 29.24ZM167.841 28.8L167.17 28.0585L167.161 28.0666L167.152 28.075L167.841 28.8ZM166.641 30.88L165.684 30.59L165.641 30.7318V30.88H166.641ZM166.641 44V45H167.641V44H166.641ZM162.441 44V33.12H160.441V44H162.441ZM162.441 33.12C162.441 31.2662 162.273 29.7728 161.833 28.7909L160.008 29.6091C160.261 30.1738 160.441 31.2938 160.441 33.12H162.441ZM161.833 28.7909C161.573 28.2108 161.156 27.7509 160.594 27.449C160.048 27.1556 159.419 27.04 158.761 27.04V29.04C159.196 29.04 159.474 29.1177 159.648 29.211C159.805 29.2958 159.922 29.4159 160.008 29.6091L161.833 28.7909ZM158.761 27.04C157.659 27.04 156.669 27.3533 155.89 28.0585L157.232 29.5415C157.572 29.2333 158.05 29.04 158.761 29.04V27.04ZM155.91 28.0407C155.208 28.6424 154.691 29.4148 154.346 30.3253L156.216 31.0347C156.457 30.3985 156.793 29.9176 157.212 29.5593L155.91 28.0407ZM154.281 30.68V44H156.281V30.68H154.281ZM155.281 43H150.081V45H155.281V43ZM151.081 44V24H149.081V44H151.081ZM150.081 25H154.121V23H150.081V25ZM153.146 24.2216L153.746 26.8616L155.696 26.4184L155.096 23.7784L153.146 24.2216ZM154.721 27.64H154.881V25.64H154.721V27.64ZM155.693 27.2236C156.234 26.4713 156.921 25.8043 157.766 25.2247L156.635 23.5753C155.614 24.2757 154.755 25.102 154.069 26.0564L155.693 27.2236ZM157.755 25.2321C158.509 24.7296 159.527 24.44 160.881 24.44V22.44C159.248 22.44 157.812 22.7904 156.646 23.5679L157.755 25.2321ZM160.881 24.44C162.027 24.44 162.857 24.6791 163.446 25.072L164.555 23.4079C163.545 22.7342 162.294 22.44 160.881 22.44V24.44ZM163.478 25.0926C164.056 25.4469 164.58 26.0974 164.983 27.1866L166.859 26.4933C166.355 25.1292 165.599 24.0464 164.523 23.3874L163.478 25.0926ZM166.782 27.348C167.321 26.4351 168 25.7263 168.819 25.2027L167.742 23.5173C166.642 24.2203 165.748 25.1649 165.059 26.332L166.782 27.348ZM168.819 25.2027C169.59 24.7105 170.554 24.44 171.761 24.44V22.44C170.247 22.44 168.892 22.7828 167.742 23.5173L168.819 25.2027ZM171.761 24.44C172.808 24.44 173.637 24.5655 174.275 24.7854L174.927 22.8946C174.018 22.5812 172.954 22.44 171.761 22.44V24.44ZM174.285 24.7887C174.891 24.9908 175.355 25.3329 175.709 25.8243L177.332 24.6557C176.726 23.8138 175.911 23.2225 174.917 22.8913L174.285 24.7887ZM175.737 25.8607C176.121 26.3459 176.445 27.0573 176.664 28.0544L178.618 27.6256C178.356 26.436 177.934 25.414 177.305 24.6193L175.737 25.8607ZM176.664 28.0544C176.883 29.0517 177.001 30.3601 177.001 32H179.001C179.001 30.2799 178.879 28.8149 178.618 27.6256L176.664 28.0544ZM177.001 32V44H179.001V32H177.001ZM178.001 43H172.801V45H178.001V43ZM173.801 44V32.76H171.801V44H173.801ZM173.801 32.76C173.801 31.146 173.628 29.8006 173.193 28.8309L171.368 29.6491C171.627 30.226 171.801 31.2273 171.801 32.76H173.801ZM173.209 28.8686C172.966 28.26 172.547 27.7773 171.97 27.4621C171.412 27.1577 170.762 27.04 170.081 27.04V29.04C170.546 29.04 170.837 29.1223 171.012 29.2179C171.167 29.3027 171.276 29.42 171.352 29.6114L173.209 28.8686ZM170.081 27.04C168.961 27.04 167.954 27.3486 167.17 28.0585L168.512 29.5415C168.847 29.2381 169.334 29.04 170.081 29.04V27.04ZM167.152 28.075C166.465 28.7273 165.988 29.5851 165.684 30.59L167.598 31.17C167.827 30.4149 168.15 29.886 168.53 29.525L167.152 28.075ZM165.641 30.88V44H167.641V30.88H165.641ZM166.641 43H161.441V45H166.641V43ZM183.788 26.2L184.527 26.8738L184.532 26.8684L183.788 26.2ZM194.908 24.2L195.305 23.2819L195.305 23.2819L194.908 24.2ZM197.828 26.36L197.058 26.998L197.063 27.0035L197.067 27.0089L197.828 26.36ZM199.548 29.68L198.587 29.9547L198.589 29.9637L198.592 29.9727L199.548 29.68ZM197.668 41.84L196.924 41.1716L196.924 41.1722L197.668 41.84ZM186.588 43.8L186.985 42.8819L186.588 43.8ZM183.628 41.68L182.858 42.318L182.868 42.33L182.878 42.3416L183.628 41.68ZM181.868 38.32L180.907 38.5947L180.909 38.6037L180.912 38.6127L181.868 38.32ZM187.628 38.4L188.497 37.9039L188.497 37.9039L187.628 38.4ZM188.868 39.72L188.334 40.5655L188.36 40.5816L188.386 40.5962L188.868 39.72ZM193.788 38.68L194.617 39.2399L194.617 39.2399L193.788 38.68ZM193.868 29.56L192.986 30.0317L192.991 30.0403L193.868 29.56ZM187.748 29.28L186.948 28.68L186.948 28.68L187.748 29.28ZM182.308 34C182.308 30.7673 183.097 28.4428 184.527 26.8738L183.049 25.5262C181.173 27.5838 180.308 30.4594 180.308 34H182.308ZM184.532 26.8684C185.957 25.2828 187.981 24.44 190.748 24.44V22.44C187.542 22.44 184.926 23.4372 183.044 25.5316L184.532 26.8684ZM190.748 24.44C192.245 24.44 193.491 24.6772 194.512 25.1181L195.305 23.2819C193.979 22.7094 192.451 22.44 190.748 22.44V24.44ZM194.512 25.1181C195.548 25.5657 196.391 26.1928 197.058 26.998L198.598 25.722C197.719 24.6605 196.615 23.8477 195.305 23.2819L194.512 25.1181ZM197.067 27.0089C197.736 27.7924 198.247 28.7664 198.587 29.9547L200.51 29.4053C200.103 27.9802 199.468 26.741 198.589 25.7111L197.067 27.0089ZM198.592 29.9727C198.959 31.1714 199.148 32.5112 199.148 34H201.148C201.148 32.3422 200.938 30.8019 200.504 29.3873L198.592 29.9727ZM199.148 34C199.148 37.2316 198.36 39.5736 196.924 41.1716L198.412 42.5084C200.283 40.4264 201.148 37.5417 201.148 34H199.148ZM196.924 41.1722C195.529 42.7274 193.52 43.56 190.748 43.56V45.56C193.95 45.56 196.554 44.5792 198.413 42.5078L196.924 41.1722ZM190.748 43.56C189.251 43.56 188.006 43.3228 186.985 42.8819L186.192 44.7181C187.518 45.2906 189.045 45.56 190.748 45.56V43.56ZM186.985 42.8819C185.939 42.4303 185.075 41.8083 184.378 41.0184L182.878 42.3416C183.781 43.365 184.891 44.1564 186.192 44.7181L186.985 42.8819ZM184.398 41.042C183.719 40.2225 183.191 39.2237 182.824 38.0273L180.912 38.6127C181.346 40.0296 181.991 41.2708 182.858 42.318L184.398 41.042ZM182.83 38.0453C182.486 36.8407 182.308 35.4947 182.308 34H180.308C180.308 35.652 180.504 37.1859 180.907 38.5947L182.83 38.0453ZM185.668 34C185.668 34.94 185.754 35.8245 185.93 36.6495L187.886 36.2305C187.743 35.5622 187.668 34.82 187.668 34H185.668ZM185.93 36.6495C186.108 37.4788 186.381 38.2321 186.76 38.8961L188.497 37.9039C188.236 37.4479 188.028 36.8945 187.886 36.2305L185.93 36.6495ZM186.76 38.8961C187.155 39.5871 187.679 40.1515 188.334 40.5655L189.402 38.8745C189.044 38.6485 188.742 38.3329 188.497 37.9039L186.76 38.8961ZM188.386 40.5962C189.092 40.9844 189.891 41.16 190.748 41.16V39.16C190.166 39.16 189.711 39.0422 189.35 38.8438L188.386 40.5962ZM190.748 41.16C192.386 41.16 193.735 40.5443 194.617 39.2399L192.96 38.1201C192.508 38.789 191.831 39.16 190.748 39.16V41.16ZM194.617 39.2399C195.453 38.0021 195.788 36.1952 195.788 34H193.788C193.788 36.0715 193.457 37.3846 192.96 38.1201L194.617 39.2399ZM195.788 34C195.788 32.0614 195.467 30.3976 194.745 29.0797L192.991 30.0403C193.496 30.9624 193.788 32.2586 193.788 34H195.788ZM194.75 29.0883C194.361 28.3614 193.816 27.783 193.111 27.3943C192.412 27.009 191.611 26.84 190.748 26.84V28.84C191.352 28.84 191.804 28.9576 192.146 29.1457C192.48 29.3303 192.762 29.6119 192.986 30.0317L194.75 29.0883ZM190.748 26.84C189.178 26.84 187.871 27.4493 186.948 28.68L188.548 29.88C189.065 29.1907 189.759 28.84 190.748 28.84V26.84ZM186.948 28.68C186.029 29.906 185.668 31.7526 185.668 34H187.668C187.668 31.8741 188.028 30.574 188.548 29.88L186.948 28.68ZM201.673 24V23H200.673V24H201.673ZM204.433 24V25H205.433V24H204.433ZM204.433 20.24L204.159 19.2782L203.433 19.4849V20.24H204.433ZM209.633 18.76H210.633V17.4357L209.359 17.7982L209.633 18.76ZM209.633 24H208.633V25H209.633V24ZM214.513 24H215.513V23H214.513V24ZM214.513 28.4V29.4H215.513V28.4H214.513ZM209.633 28.4V27.4H208.633V28.4H209.633ZM210.033 39.08L209.116 39.4787L209.126 39.5033L209.138 39.5272L210.033 39.08ZM212.993 39.8L212.735 38.8338L212.726 38.836L212.718 38.8385L212.993 39.8ZM214.313 39.32L215.287 39.0959L215.015 37.9134L213.907 38.4062L214.313 39.32ZM215.233 43.32L215.666 44.221L216.386 43.8744L216.207 43.0959L215.233 43.32ZM212.713 44.2L212.955 45.1701L212.955 45.1701L212.713 44.2ZM205.713 43.16L204.965 43.8244L204.975 43.8353L204.985 43.846L205.713 43.16ZM204.433 28.4H205.433V27.4H204.433V28.4ZM201.673 28.4H200.673V29.4H201.673V28.4ZM201.673 25H204.433V23H201.673V25ZM205.433 24V20.24H203.433V24H205.433ZM204.706 21.2018L209.906 19.7218L209.359 17.7982L204.159 19.2782L204.706 21.2018ZM208.633 18.76V24H210.633V18.76H208.633ZM209.633 25H214.513V23H209.633V25ZM213.513 24V28.4H215.513V24H213.513ZM214.513 27.4H209.633V29.4H214.513V27.4ZM208.633 28.4V36.08H210.633V28.4H208.633ZM208.633 36.08C208.633 37.488 208.762 38.6649 209.116 39.4787L210.95 38.6813C210.77 38.2685 210.633 37.4453 210.633 36.08H208.633ZM209.138 39.5272C209.368 39.9873 209.712 40.364 210.171 40.6162C210.62 40.8632 211.122 40.96 211.633 40.96V38.96C211.37 38.96 211.219 38.9102 211.135 38.8638C211.06 38.8226 210.99 38.7594 210.927 38.6328L209.138 39.5272ZM211.633 40.96C212.227 40.96 212.778 40.9012 213.267 40.7615L212.718 38.8385C212.46 38.9121 212.105 38.96 211.633 38.96V40.96ZM213.25 40.7662C213.712 40.643 214.203 40.4631 214.719 40.2338L213.907 38.4062C213.462 38.6036 213.073 38.7437 212.735 38.8338L213.25 40.7662ZM213.338 39.5441L214.258 43.5441L216.207 43.0959L215.287 39.0959L213.338 39.5441ZM214.799 42.419C214.153 42.7302 213.379 43.0026 212.47 43.2299L212.955 45.1701C213.966 44.9174 214.873 44.6031 215.666 44.221L214.799 42.419ZM212.47 43.2299C211.589 43.4501 210.697 43.56 209.793 43.56V45.56C210.861 45.56 211.916 45.4299 212.955 45.1701L212.47 43.2299ZM209.793 43.56C208.107 43.56 207.062 43.133 206.44 42.474L204.985 43.846C206.124 45.0536 207.799 45.56 209.793 45.56V43.56ZM206.46 42.4956C205.849 41.8082 205.433 40.5497 205.433 38.48H203.433C203.433 40.7303 203.87 42.5918 204.965 43.8244L206.46 42.4956ZM205.433 38.48V28.4H203.433V38.48H205.433ZM204.433 27.4H201.673V29.4H204.433V27.4ZM202.673 28.4V24H200.673V28.4H202.673ZM233.503 42.28L234.127 43.0609L234.762 42.5534L234.395 41.8286L233.503 42.28ZM230.223 43.92L230.522 44.8742L230.533 44.8705L230.223 43.92ZM218.783 41.76L217.997 42.3793L218.002 42.3847L218.783 41.76ZM219.063 26.08L218.339 25.3895L218.339 25.3895L219.063 26.08ZM229.103 23.84L228.835 24.8035L228.835 24.8035L229.103 23.84ZM233.463 27.64L234.379 27.2404L234.379 27.2404L233.463 27.64ZM234.023 33.32L233.03 33.196L233.028 33.2164L233.026 33.237L234.023 33.32ZM233.743 35.32V36.32H234.569L234.725 35.5088L233.743 35.32ZM221.743 35.32V34.32H220.694L220.744 35.3676L221.743 35.32ZM223.023 39.12L222.282 39.7915L222.287 39.7978L222.293 39.8039L223.023 39.12ZM229.783 39.92L230.134 40.8563L230.142 40.8534L230.149 40.8504L229.783 39.92ZM231.783 38.88L232.675 38.4286L232.132 37.3543L231.175 38.0856L231.783 38.88ZM223.023 28.84L222.244 28.2122L222.242 28.2153L223.023 28.84ZM221.863 32.08L220.867 31.9824L220.76 33.08H221.863V32.08ZM229.303 32.08V33.08H230.231L230.3 32.1539L229.303 32.08ZM228.623 28.76L227.799 29.3277L227.806 29.3372L227.813 29.3465L228.623 28.76ZM232.878 41.4991C232.202 42.0397 231.229 42.5389 229.912 42.9695L230.533 44.8705C231.99 44.3944 233.203 43.8003 234.127 43.0609L232.878 41.4991ZM229.923 42.9659C228.668 43.3597 227.316 43.56 225.863 43.56V45.56C227.502 45.56 229.057 45.3337 230.522 44.8741L229.923 42.9659ZM225.863 43.56C222.826 43.56 220.806 42.6884 219.564 41.1353L218.002 42.3847C219.746 44.5649 222.446 45.56 225.863 45.56V43.56ZM219.568 41.1407C218.256 39.4779 217.543 37.1356 217.543 34H215.543C215.543 37.4244 216.322 40.2554 217.997 42.3793L219.568 41.1407ZM217.543 34C217.543 30.6228 218.349 28.2756 219.786 26.7705L218.339 25.3895C216.416 27.4044 215.543 30.3372 215.543 34H217.543ZM219.786 26.7705C221.232 25.2551 223.303 24.44 226.143 24.44V22.44C222.902 22.44 220.253 23.3849 218.339 25.3895L219.786 26.7705ZM226.143 24.44C227.067 24.44 227.964 24.5615 228.835 24.8035L229.37 22.8765C228.322 22.5852 227.245 22.44 226.143 22.44V24.44ZM228.835 24.8035C229.665 25.0341 230.392 25.4107 231.028 25.9327L232.297 24.3873C231.44 23.6827 230.46 23.1793 229.37 22.8765L228.835 24.8035ZM231.028 25.9327C231.633 26.4296 232.145 27.1193 232.546 28.0396L234.379 27.2404C233.874 26.0807 233.186 25.117 232.297 24.3873L231.028 25.9327ZM232.546 28.0396C232.928 28.9166 233.143 30.0639 233.143 31.52H235.143C235.143 29.8828 234.904 28.4434 234.379 27.2404L232.546 28.0396ZM233.143 31.52C233.143 32.0329 233.106 32.5911 233.03 33.196L235.015 33.444C235.099 32.7689 235.143 32.1271 235.143 31.52H233.143ZM233.026 33.237C232.976 33.8382 232.888 34.4694 232.761 35.1312L234.725 35.5088C234.864 34.7839 234.963 34.0818 235.019 33.403L233.026 33.237ZM233.743 34.32H221.743V36.32H233.743V34.32ZM220.744 35.3676C220.83 37.1756 221.295 38.7027 222.282 39.7915L223.764 38.4485C223.204 37.8307 222.815 36.8244 222.742 35.2724L220.744 35.3676ZM222.293 39.8039C223.36 40.9418 224.965 41.4 226.863 41.4V39.4C225.24 39.4 224.285 39.0048 223.752 38.4361L222.293 39.8039ZM226.863 41.4C228.053 41.4 229.148 41.2259 230.134 40.8563L229.432 38.9837C228.71 39.2541 227.859 39.4 226.863 39.4V41.4ZM230.149 40.8504C231.067 40.4889 231.831 40.1021 232.39 39.6744L231.175 38.0856C230.828 38.3513 230.259 38.6577 229.416 38.9896L230.149 40.8504ZM230.89 39.3314L232.61 42.7314L234.395 41.8286L232.675 38.4286L230.89 39.3314ZM226.063 26.6C224.492 26.6 223.152 27.0868 222.244 28.2122L223.801 29.4678C224.227 28.9399 224.913 28.6 226.063 28.6V26.6ZM222.242 28.2153C221.447 29.2093 221.013 30.4926 220.867 31.9824L222.858 32.1776C222.978 30.9474 223.319 30.0707 223.804 29.4647L222.242 28.2153ZM221.863 33.08H229.303V31.08H221.863V33.08ZM230.3 32.1539C230.415 30.5944 230.187 29.2147 229.433 28.1735L227.813 29.3465C228.179 29.852 228.403 30.6856 228.305 32.0061L230.3 32.1539ZM229.446 28.1923C228.679 27.0803 227.473 26.6 226.063 26.6V28.6C226.999 28.6 227.5 28.893 227.799 29.3277L229.446 28.1923Z" fill="#25283D"/>
<path d="M28.4625 133.4C19.8625 133.4 13.7958 129.5 10.2625 121.7C6.79583 113.9 5.0625 104.3 5.0625 92.9C5.0625 86.7667 5.8625 80.8667 7.4625 75.2C9.0625 69.5333 11.6292 64.8667 15.1625 61.2C18.7625 57.4667 23.2958 55.6 28.7625 55.6C32.9625 55.6 36.6292 56.9 39.7625 59.5C42.9625 62.1 45.3958 65.5 47.0625 69.7C48.7958 73.8333 49.6625 78.1667 49.6625 82.7L35.4625 83.4C35.4625 80.4 34.9625 77 33.9625 73.2C32.9625 69.3333 30.9625 67.4 27.9625 67.4C24.8292 67.4 22.6625 69.9 21.4625 74.9C20.2625 79.9 19.6625 85.9 19.6625 92.9C19.6625 101.567 20.3292 108.533 21.6625 113.8C22.9958 119 25.5625 121.6 29.3625 121.6C32.0292 121.6 33.9292 120.033 35.0625 116.9C36.1958 113.7 36.9292 109.833 37.2625 105.3L49.7625 106.5C49.7625 111.3 48.9625 115.767 47.3625 119.9C45.7625 123.967 43.3625 127.233 40.1625 129.7C36.9625 132.167 33.0625 133.4 28.4625 133.4ZM54.5086 132L70.3086 57.9L91.2086 57L107.409 131.4L91.4086 132L88.7086 115.9H70.8086L67.6086 132H54.5086ZM73.5086 103.9H86.0086L79.1086 68L73.5086 103.9ZM165.684 132.6V76.3L151.684 132H142.684L127.584 76.1V131.4L115.484 132V57.7L136.984 57.1L149.384 103.5L161.284 58.8L180.884 57.6V131.4L165.684 132.6ZM194.879 132V57H232.979L231.779 68.7H209.579V86.6H225.379L225.279 99.2H209.579V120.3H233.779L232.579 132H194.879ZM263.519 99.1H257.819V131.4L243.219 132.6V57.6L261.019 57C269.619 57 276.352 58.7333 281.219 62.2C286.085 65.6 288.519 70.8333 288.519 77.9C288.519 82.5667 287.585 86.4 285.719 89.4C283.919 92.4 281.285 94.9 277.819 96.9L284.519 113.2L291.319 129.4L276.919 133.3L263.519 99.1ZM262.819 88.3C266.285 88.3 268.985 87.6 270.919 86.2C272.919 84.7333 273.919 82 273.919 78C273.919 71.8 270.852 68.7 264.719 68.7H257.819V88.3H262.819ZM293.962 132L309.762 57.9L330.662 57L346.862 131.4L330.862 132L328.162 115.9H310.262L307.062 132H293.962ZM312.962 103.9H325.462L318.562 68L312.962 103.9Z" fill="white"/>
<path d="M10.2625 121.7L9.34867 122.106L9.3516 122.113L10.2625 121.7ZM7.4625 75.2L8.42487 75.4717L8.42487 75.4717L7.4625 75.2ZM15.1625 61.2L14.4427 60.5059L14.4424 60.5061L15.1625 61.2ZM39.7625 59.5L39.1239 60.2696L39.1319 60.2761L39.7625 59.5ZM47.0625 69.7L46.133 70.0688L46.1366 70.0778L46.1403 70.0867L47.0625 69.7ZM49.6625 82.7L49.7117 83.6988L50.6625 83.6519V82.7H49.6625ZM35.4625 83.4H34.4625V84.4505L35.5117 84.3988L35.4625 83.4ZM33.9625 73.2L32.9943 73.4504L32.9954 73.4545L33.9625 73.2ZM21.4625 74.9L20.4901 74.6666L20.4901 74.6666L21.4625 74.9ZM21.6625 113.8L20.6931 114.045L20.6938 114.048L21.6625 113.8ZM35.0625 116.9L36.0029 117.24L36.0051 117.234L35.0625 116.9ZM37.2625 105.3L37.3581 104.305L36.3402 104.207L36.2652 105.227L37.2625 105.3ZM49.7625 106.5H50.7625V105.591L49.8581 105.505L49.7625 106.5ZM47.3625 119.9L48.2931 120.266L48.2951 120.261L47.3625 119.9ZM40.1625 129.7L40.773 130.492L40.773 130.492L40.1625 129.7ZM28.4625 132.4C24.3169 132.4 20.8465 131.462 18.0033 129.634C15.1603 127.806 12.8757 125.045 11.1734 121.287L9.3516 122.113C11.1827 126.155 13.698 129.244 16.9217 131.316C20.1452 133.388 24.0081 134.4 28.4625 134.4V132.4ZM11.1763 121.294C7.78213 113.657 6.0625 104.205 6.0625 92.9H4.0625C4.0625 104.395 5.80954 114.143 9.34869 122.106L11.1763 121.294ZM6.0625 92.9C6.0625 86.8547 6.85086 81.0464 8.42487 75.4717L6.50013 74.9283C4.87414 80.687 4.0625 86.6786 4.0625 92.9H6.0625ZM8.42487 75.4717C9.98715 69.9386 12.4803 65.4246 15.8826 61.8939L14.4424 60.5061C10.7781 64.3087 8.13785 69.128 6.50013 74.9283L8.42487 75.4717ZM15.8823 61.8941C19.2828 58.3678 23.5509 56.6 28.7625 56.6V54.6C23.0407 54.6 18.2422 56.5656 14.4427 60.5059L15.8823 61.8941ZM28.7625 56.6C32.7373 56.6 36.1761 57.8235 39.1239 60.2696L40.4011 58.7304C37.0822 55.9765 33.1877 54.6 28.7625 54.6V56.6ZM39.1319 60.2761C42.1866 62.758 44.5233 66.0123 46.133 70.0688L47.992 69.3312C46.2684 64.9877 43.7384 61.442 40.3931 58.7239L39.1319 60.2761ZM46.1403 70.0867C47.8217 74.0962 48.6625 78.2979 48.6625 82.7H50.6625C50.6625 78.0354 49.77 73.5705 47.9847 69.3133L46.1403 70.0867ZM49.6133 81.7012L35.4133 82.4012L35.5117 84.3988L49.7117 83.6988L49.6133 81.7012ZM36.4625 83.4C36.4625 80.2923 35.9451 76.8045 34.9296 72.9455L32.9954 73.4545C33.9799 77.1955 34.4625 80.5077 34.4625 83.4H36.4625ZM34.9306 72.9496C34.4035 70.9115 33.5857 69.2699 32.4075 68.131C31.2056 66.9691 29.6995 66.4 27.9625 66.4V68.4C29.2255 68.4 30.2194 68.7975 31.0175 69.569C31.8393 70.3635 32.5215 71.6219 32.9944 73.4504L34.9306 72.9496ZM27.9625 66.4C26.0879 66.4 24.493 67.1648 23.2318 68.6201C22.0011 70.0401 21.1088 72.089 20.4901 74.6666L22.4349 75.1334C23.0163 72.711 23.8072 71.0099 24.7432 69.9299C25.6486 68.8852 26.7038 68.4 27.9625 68.4V66.4ZM20.4901 74.6666C19.2665 79.7649 18.6625 85.8476 18.6625 92.9H20.6625C20.6625 85.9524 21.2585 80.0351 22.4349 75.1334L20.4901 74.6666ZM18.6625 92.9C18.6625 101.607 19.3311 108.666 20.6931 114.045L22.6319 113.555C21.3272 108.401 20.6625 101.527 20.6625 92.9H18.6625ZM20.6938 114.048C21.3852 116.745 22.4231 118.881 23.8758 120.353C25.3553 121.851 27.207 122.6 29.3625 122.6V120.6C27.718 120.6 26.3863 120.049 25.2992 118.947C24.1852 117.819 23.2731 116.055 22.6312 113.552L20.6938 114.048ZM29.3625 122.6C30.9073 122.6 32.2793 122.14 33.4237 121.197C34.5524 120.266 35.396 118.918 36.0029 117.24L34.1221 116.56C33.5957 118.015 32.9226 119.017 32.1513 119.653C31.3957 120.276 30.4843 120.6 29.3625 120.6V122.6ZM36.0051 117.234C37.1763 113.927 37.922 109.968 38.2598 105.373L36.2652 105.227C35.9363 109.699 35.2153 113.473 34.1199 116.566L36.0051 117.234ZM37.1669 106.295L49.6669 107.495L49.8581 105.505L37.3581 104.305L37.1669 106.295ZM48.7625 106.5C48.7625 111.187 47.9818 115.53 46.4299 119.539L48.2951 120.261C49.9432 116.003 50.7625 111.413 50.7625 106.5H48.7625ZM46.4319 119.534C44.8926 123.446 42.5971 126.561 39.552 128.908L40.773 130.492C44.1279 127.906 46.6324 124.487 48.2931 120.266L46.4319 119.534ZM39.552 128.908C36.5508 131.221 32.8737 132.4 28.4625 132.4V134.4C33.2513 134.4 37.3742 133.112 40.773 130.492L39.552 128.908ZM54.5086 132L53.5306 131.791L53.2729 133H54.5086V132ZM70.3086 57.9L70.2656 56.9009L69.492 56.9342L69.3306 57.6915L70.3086 57.9ZM91.2086 57L92.1857 56.7872L92.0066 55.9647L91.1656 56.0009L91.2086 57ZM107.409 131.4L107.446 132.399L108.64 132.355L108.386 131.187L107.409 131.4ZM91.4086 132L90.4224 132.165L90.5677 133.032L91.4461 132.999L91.4086 132ZM88.7086 115.9L89.6948 115.735L89.5549 114.9H88.7086V115.9ZM70.8086 115.9V114.9H69.9878L69.8278 115.705L70.8086 115.9ZM67.6086 132V133H68.4294L68.5894 132.195L67.6086 132ZM73.5086 103.9L72.5205 103.746L72.3405 104.9H73.5086V103.9ZM86.0086 103.9V104.9H87.2191L86.9906 103.711L86.0086 103.9ZM79.1086 68L80.0906 67.8112L78.1205 67.8459L79.1086 68ZM55.4866 132.209L71.2866 58.1085L69.3306 57.6915L53.5306 131.791L55.4866 132.209ZM70.3516 58.8991L91.2516 57.9991L91.1656 56.0009L70.2656 56.9009L70.3516 58.8991ZM90.2315 57.2128L106.431 131.613L108.386 131.187L92.1857 56.7872L90.2315 57.2128ZM107.371 130.401L91.3711 131.001L91.4461 132.999L107.446 132.399L107.371 130.401ZM92.3948 131.835L89.6948 115.735L87.7224 116.065L90.4224 132.165L92.3948 131.835ZM88.7086 114.9H70.8086V116.9H88.7086V114.9ZM69.8278 115.705L66.6278 131.805L68.5894 132.195L71.7894 116.095L69.8278 115.705ZM67.6086 131H54.5086V133H67.6086V131ZM73.5086 104.9H86.0086V102.9H73.5086V104.9ZM86.9906 103.711L80.0906 67.8112L78.1266 68.1887L85.0266 104.089L86.9906 103.711ZM78.1205 67.8459L72.5205 103.746L74.4966 104.054L80.0966 68.1541L78.1205 67.8459ZM165.684 132.6H164.684V133.682L165.763 133.597L165.684 132.6ZM165.684 76.3H166.684L164.715 76.0562L165.684 76.3ZM151.684 132V133H152.464L152.654 132.244L151.684 132ZM142.684 132L141.719 132.261L141.919 133H142.684V132ZM127.584 76.1L128.55 75.8392L126.584 76.1H127.584ZM127.584 131.4L127.634 132.399L128.584 132.352V131.4H127.584ZM115.484 132H114.484V133.051L115.534 132.999L115.484 132ZM115.484 57.7L115.456 56.7004L114.484 56.7275V57.7H115.484ZM136.984 57.1L137.95 56.8418L137.746 56.0783L136.956 56.1004L136.984 57.1ZM149.384 103.5L148.418 103.758L149.386 107.38L150.351 103.757L149.384 103.5ZM161.284 58.8L161.223 57.8019L160.504 57.8459L160.318 58.5427L161.284 58.8ZM180.884 57.6H181.884V56.5369L180.823 56.6019L180.884 57.6ZM180.884 131.4L180.963 132.397L181.884 132.324V131.4H180.884ZM166.684 132.6V76.3H164.684V132.6H166.684ZM164.715 76.0562L150.715 131.756L152.654 132.244L166.654 76.5438L164.715 76.0562ZM151.684 131H142.684V133H151.684V131ZM143.65 131.739L128.55 75.8392L126.619 76.3608L141.719 132.261L143.65 131.739ZM126.584 76.1V131.4H128.584V76.1H126.584ZM127.535 130.401L115.435 131.001L115.534 132.999L127.634 132.399L127.535 130.401ZM116.484 132V57.7H114.484V132H116.484ZM115.512 58.6996L137.012 58.0996L136.956 56.1004L115.456 56.7004L115.512 58.6996ZM136.018 57.3582L148.418 103.758L150.35 103.242L137.95 56.8418L136.018 57.3582ZM150.351 103.757L162.251 59.0573L160.318 58.5427L148.418 103.243L150.351 103.757ZM161.345 59.7981L180.945 58.5981L180.823 56.6019L161.223 57.8019L161.345 59.7981ZM179.884 57.6V131.4H181.884V57.6H179.884ZM180.806 130.403L165.606 131.603L165.763 133.597L180.963 132.397L180.806 130.403ZM194.879 132H193.879V133H194.879V132ZM194.879 57V56H193.879V57H194.879ZM232.979 57L233.974 57.102L234.087 56H232.979V57ZM231.779 68.7V69.7H232.682L232.774 68.802L231.779 68.7ZM209.579 68.7V67.7H208.579V68.7H209.579ZM209.579 86.6H208.579V87.6H209.579V86.6ZM225.379 86.6L226.379 86.6079L226.387 85.6H225.379V86.6ZM225.279 99.2V100.2H226.271L226.279 99.2079L225.279 99.2ZM209.579 99.2V98.2H208.579V99.2H209.579ZM209.579 120.3H208.579V121.3H209.579V120.3ZM233.779 120.3L234.774 120.402L234.887 119.3H233.779V120.3ZM232.579 132V133H233.482L233.574 132.102L232.579 132ZM195.879 132V57H193.879V132H195.879ZM194.879 58H232.979V56H194.879V58ZM231.984 56.898L230.784 68.598L232.774 68.802L233.974 57.102L231.984 56.898ZM231.779 67.7H209.579V69.7H231.779V67.7ZM208.579 68.7V86.6H210.579V68.7H208.579ZM209.579 87.6H225.379V85.6H209.579V87.6ZM224.379 86.5921L224.279 99.1921L226.279 99.2079L226.379 86.6079L224.379 86.5921ZM225.279 98.2H209.579V100.2H225.279V98.2ZM208.579 99.2V120.3H210.579V99.2H208.579ZM209.579 121.3H233.779V119.3H209.579V121.3ZM232.784 120.198L231.584 131.898L233.574 132.102L234.774 120.402L232.784 120.198ZM232.579 131H194.879V133H232.579V131ZM263.519 99.1L264.45 98.7352L264.201 98.1H263.519V99.1ZM257.819 99.1V98.1H256.819V99.1H257.819ZM257.819 131.4L257.901 132.397L258.819 132.321V131.4H257.819ZM243.219 132.6H242.219V133.686L243.301 133.597L243.219 132.6ZM243.219 57.6L243.185 56.6006L242.219 56.6331V57.6H243.219ZM261.019 57V56H261.002L260.985 56.0006L261.019 57ZM281.219 62.2L280.639 63.0145L280.646 63.0198L281.219 62.2ZM285.719 89.4L284.87 88.8717L284.865 88.8786L284.861 88.8855L285.719 89.4ZM277.819 96.9L277.319 96.0338L276.561 96.471L276.894 97.2802L277.819 96.9ZM284.519 113.2L283.594 113.58L283.597 113.587L284.519 113.2ZM291.319 129.4L291.58 130.365L292.683 130.067L292.241 129.013L291.319 129.4ZM276.919 133.3L275.988 133.665L276.315 134.5L277.18 134.265L276.919 133.3ZM270.919 86.2L271.505 87.01L271.51 87.0064L270.919 86.2ZM257.819 68.7V67.7H256.819V68.7H257.819ZM257.819 88.3H256.819V89.3H257.819V88.3ZM263.519 98.1H257.819V100.1H263.519V98.1ZM256.819 99.1V131.4H258.819V99.1H256.819ZM257.737 130.403L243.137 131.603L243.301 133.597L257.901 132.397L257.737 130.403ZM244.219 132.6V57.6H242.219V132.6H244.219ZM243.252 58.5994L261.052 57.9994L260.985 56.0006L243.185 56.6006L243.252 58.5994ZM261.019 58C269.498 58 276.001 59.711 280.639 63.0145L281.799 61.3855C276.703 57.7557 269.739 56 261.019 56V58ZM280.646 63.0198C285.192 66.1954 287.519 71.089 287.519 77.9H289.519C289.519 70.5777 286.979 65.0046 281.791 61.3802L280.646 63.0198ZM287.519 77.9C287.519 82.4384 286.611 86.0735 284.87 88.8717L286.568 89.9283C288.56 86.7265 289.519 82.6949 289.519 77.9H287.519ZM284.861 88.8855C283.161 91.7199 280.66 94.1064 277.319 96.0338L278.318 97.7662C281.911 95.6936 284.677 93.0801 286.576 89.9145L284.861 88.8855ZM276.894 97.2802L283.594 113.58L285.444 112.82L278.744 96.5198L276.894 97.2802ZM283.597 113.587L290.397 129.787L292.241 129.013L285.441 112.813L283.597 113.587ZM291.057 128.435L276.657 132.335L277.18 134.265L291.58 130.365L291.057 128.435ZM277.85 132.935L264.45 98.7352L262.588 99.4648L275.988 133.665L277.85 132.935ZM262.819 89.3C266.405 89.3 269.34 88.578 271.505 87.0099L270.332 85.3901C268.631 86.622 266.166 87.3 262.819 87.3V89.3ZM271.51 87.0064C273.893 85.2592 274.919 82.1215 274.919 78H272.919C272.919 81.8785 271.945 84.2074 270.327 85.3936L271.51 87.0064ZM274.919 78C274.919 74.7486 274.114 72.1258 272.33 70.3217C270.543 68.5157 267.942 67.7 264.719 67.7V69.7C267.629 69.7 269.628 70.4343 270.908 71.7283C272.19 73.0242 272.919 75.0514 272.919 78H274.919ZM264.719 67.7H257.819V69.7H264.719V67.7ZM256.819 68.7V88.3H258.819V68.7H256.819ZM257.819 89.3H262.819V87.3H257.819V89.3ZM293.962 132L292.984 131.791L292.726 133H293.962V132ZM309.762 57.9L309.719 56.9009L308.945 56.9342L308.784 57.6915L309.762 57.9ZM330.662 57L331.639 56.7872L331.46 55.9647L330.619 56.0009L330.662 57ZM346.862 131.4L346.899 132.399L348.093 132.355L347.839 131.187L346.862 131.4ZM330.862 132L329.875 132.165L330.021 133.032L330.899 132.999L330.862 132ZM328.162 115.9L329.148 115.735L329.008 114.9H328.162V115.9ZM310.262 115.9V114.9H309.441L309.281 115.705L310.262 115.9ZM307.062 132V133H307.883L308.043 132.195L307.062 132ZM312.962 103.9L311.974 103.746L311.794 104.9H312.962V103.9ZM325.462 103.9V104.9H326.672L326.444 103.711L325.462 103.9ZM318.562 68L319.544 67.8112L317.574 67.8459L318.562 68ZM294.94 132.209L310.74 58.1085L308.784 57.6915L292.984 131.791L294.94 132.209ZM309.805 58.8991L330.705 57.9991L330.619 56.0009L309.719 56.9009L309.805 58.8991ZM329.685 57.2128L345.885 131.613L347.839 131.187L331.639 56.7872L329.685 57.2128ZM346.824 130.401L330.824 131.001L330.899 132.999L346.899 132.399L346.824 130.401ZM331.848 131.835L329.148 115.735L327.175 116.065L329.875 132.165L331.848 131.835ZM328.162 114.9H310.262V116.9H328.162V114.9ZM309.281 115.705L306.081 131.805L308.043 132.195L311.243 116.095L309.281 115.705ZM307.062 131H293.962V133H307.062V131ZM312.962 104.9H325.462V102.9H312.962V104.9ZM326.444 103.711L319.544 67.8112L317.58 68.1887L324.48 104.089L326.444 103.711ZM317.574 67.8459L311.974 103.746L313.95 104.054L319.55 68.1541L317.574 67.8459Z" fill="#25283D"/>
<path d="M126.785 25.88C125.958 25.5867 125.212 25.44 124.545 25.44C123.612 25.44 122.825 25.6933 122.185 26.2C121.572 26.68 121.158 27.3067 120.945 28.08V41H115.745V21H119.785L120.385 23.64H120.545C120.998 22.6533 121.612 21.8933 122.385 21.36C123.158 20.8267 124.065 20.56 125.105 20.56C125.798 20.56 126.585 20.7067 127.465 21L126.785 25.88ZM145.768 39.28C144.968 39.92 143.875 40.4667 142.488 40.92C141.128 41.3467 139.675 41.56 138.128 41.56C134.902 41.56 132.542 40.6267 131.048 38.76C129.555 36.8667 128.808 34.28 128.808 31C128.808 27.48 129.648 24.84 131.328 23.08C133.008 21.32 135.368 20.44 138.408 20.44C139.422 20.44 140.408 20.5733 141.368 20.84C142.328 21.1067 143.182 21.5467 143.928 22.16C144.675 22.7733 145.275 23.6 145.728 24.64C146.182 25.68 146.408 26.9733 146.408 28.52C146.408 29.08 146.368 29.68 146.288 30.32C146.235 30.96 146.142 31.6267 146.008 32.32H134.008C134.088 34 134.515 35.2667 135.288 36.12C136.088 36.9733 137.368 37.4 139.128 37.4C140.222 37.4 141.195 37.24 142.048 36.92C142.928 36.5733 143.595 36.2267 144.048 35.88L145.768 39.28ZM138.328 24.6C136.968 24.6 135.955 25.0133 135.288 25.84C134.648 26.64 134.262 27.72 134.128 29.08H141.568C141.675 27.64 141.448 26.5333 140.888 25.76C140.355 24.9867 139.502 24.6 138.328 24.6ZM161.441 41V30.12C161.441 28.28 161.267 26.9733 160.921 26.2C160.574 25.4267 159.854 25.04 158.761 25.04C157.854 25.04 157.121 25.2933 156.561 25.8C156.001 26.28 155.574 26.9067 155.281 27.68V41H150.081V21H154.121L154.721 23.64H154.881C155.494 22.7867 156.267 22.04 157.201 21.4C158.161 20.76 159.387 20.44 160.881 20.44C162.161 20.44 163.201 20.7067 164.001 21.24C164.827 21.7467 165.467 22.6133 165.921 23.84C166.534 22.8 167.321 21.9733 168.281 21.36C169.241 20.7467 170.401 20.44 171.761 20.44C172.881 20.44 173.827 20.5733 174.601 20.84C175.401 21.1067 176.041 21.5733 176.521 22.24C177.027 22.88 177.401 23.7467 177.641 24.84C177.881 25.9333 178.001 27.32 178.001 29V41H172.801V29.76C172.801 28.1867 172.627 27.0133 172.281 26.24C171.961 25.44 171.227 25.04 170.081 25.04C169.147 25.04 168.401 25.2933 167.841 25.8C167.307 26.3067 166.907 27 166.641 27.88V41H161.441ZM181.308 31C181.308 27.6133 182.135 25.0133 183.788 23.2C185.442 21.36 187.762 20.44 190.748 20.44C192.348 20.44 193.735 20.6933 194.908 21.2C196.082 21.7067 197.055 22.4267 197.828 23.36C198.602 24.2667 199.175 25.3733 199.548 26.68C199.948 27.9867 200.148 29.4267 200.148 31C200.148 34.3867 199.322 37 197.668 38.84C196.042 40.6533 193.735 41.56 190.748 41.56C189.148 41.56 187.762 41.3067 186.588 40.8C185.415 40.2933 184.428 39.5867 183.628 38.68C182.855 37.7467 182.268 36.6267 181.868 35.32C181.495 34.0133 181.308 32.5733 181.308 31ZM186.668 31C186.668 31.88 186.748 32.6933 186.908 33.44C187.068 34.1867 187.308 34.84 187.628 35.4C187.948 35.96 188.362 36.4 188.868 36.72C189.402 37.0133 190.028 37.16 190.748 37.16C192.108 37.16 193.122 36.6667 193.788 35.68C194.455 34.6933 194.788 33.1333 194.788 31C194.788 29.16 194.482 27.68 193.868 26.56C193.255 25.4133 192.215 24.84 190.748 24.84C189.468 24.84 188.468 25.32 187.748 26.28C187.028 27.24 186.668 28.8133 186.668 31ZM201.673 21H204.433V17.24L209.633 15.76V21H214.513V25.4H209.633V33.08C209.633 34.4667 209.766 35.4667 210.033 36.08C210.326 36.6667 210.859 36.96 211.633 36.96C212.166 36.96 212.619 36.9067 212.993 36.8C213.393 36.6933 213.833 36.5333 214.313 36.32L215.233 40.32C214.513 40.6667 213.673 40.96 212.713 41.2C211.753 41.44 210.779 41.56 209.793 41.56C207.953 41.56 206.593 41.0933 205.713 40.16C204.859 39.2 204.433 37.64 204.433 35.48V25.4H201.673V21ZM233.503 39.28C232.703 39.92 231.609 40.4667 230.223 40.92C228.863 41.3467 227.409 41.56 225.863 41.56C222.636 41.56 220.276 40.6267 218.783 38.76C217.289 36.8667 216.543 34.28 216.543 31C216.543 27.48 217.383 24.84 219.063 23.08C220.743 21.32 223.103 20.44 226.143 20.44C227.156 20.44 228.143 20.5733 229.103 20.84C230.063 21.1067 230.916 21.5467 231.663 22.16C232.409 22.7733 233.009 23.6 233.463 24.64C233.916 25.68 234.143 26.9733 234.143 28.52C234.143 29.08 234.103 29.68 234.023 30.32C233.969 30.96 233.876 31.6267 233.743 32.32H221.743C221.823 34 222.249 35.2667 223.023 36.12C223.823 36.9733 225.103 37.4 226.863 37.4C227.956 37.4 228.929 37.24 229.783 36.92C230.663 36.5733 231.329 36.2267 231.783 35.88L233.503 39.28ZM226.063 24.6C224.703 24.6 223.689 25.0133 223.023 25.84C222.383 26.64 221.996 27.72 221.863 29.08H229.303C229.409 27.64 229.183 26.5333 228.623 25.76C228.089 24.9867 227.236 24.6 226.063 24.6Z" fill="white"/>
<path d="M126.785 25.88L126.45 26.8224L127.606 27.2325L127.775 26.018L126.785 25.88ZM122.185 26.2L122.801 26.9875L122.806 26.984L122.185 26.2ZM120.945 28.08L119.981 27.8141L119.945 27.9446V28.08H120.945ZM120.945 41V42H121.945V41H120.945ZM115.745 41H114.745V42H115.745V41ZM115.745 21V20H114.745V21H115.745ZM119.785 21L120.76 20.7784L120.583 20H119.785V21ZM120.385 23.64L119.41 23.8616L119.587 24.64H120.385V23.64ZM120.545 23.64V24.64H121.186L121.454 24.0575L120.545 23.64ZM122.385 21.36L122.953 22.1832L122.385 21.36ZM127.465 21L128.455 21.138L128.57 20.3143L127.781 20.0513L127.465 21ZM127.119 24.9376C126.217 24.6175 125.355 24.44 124.545 24.44V26.44C125.068 26.44 125.699 26.5559 126.45 26.8224L127.119 24.9376ZM124.545 24.44C123.42 24.44 122.406 24.7497 121.564 25.416L122.806 26.984C123.244 26.6369 123.803 26.44 124.545 26.44V24.44ZM121.569 25.4125C120.781 26.0288 120.249 26.8408 119.981 27.8141L121.909 28.3459C122.067 27.7726 122.362 27.3312 122.801 26.9875L121.569 25.4125ZM119.945 28.08V41H121.945V28.08H119.945ZM120.945 40H115.745V42H120.945V40ZM116.745 41V21H114.745V41H116.745ZM115.745 22H119.785V20H115.745V22ZM118.81 21.2216L119.41 23.8616L121.36 23.4184L120.76 20.7784L118.81 21.2216ZM120.385 24.64H120.545V22.64H120.385V24.64ZM121.454 24.0575C121.844 23.2084 122.349 22.5994 122.953 22.1832L121.817 20.5368C120.874 21.1873 120.153 22.0983 119.636 23.2225L121.454 24.0575ZM122.953 22.1832C123.541 21.7772 124.245 21.56 125.105 21.56V19.56C123.885 19.56 122.775 19.8761 121.817 20.5368L122.953 22.1832ZM125.105 21.56C125.661 21.56 126.338 21.6786 127.149 21.9487L127.781 20.0513C126.831 19.7347 125.935 19.56 125.105 19.56V21.56ZM126.474 20.862L125.794 25.742L127.775 26.018L128.455 21.138L126.474 20.862ZM145.768 39.28L146.393 40.0609L147.027 39.5534L146.661 38.8286L145.768 39.28ZM142.488 40.92L142.788 41.8742L142.799 41.8705L142.488 40.92ZM131.048 38.76L130.263 39.3793L130.267 39.3847L131.048 38.76ZM131.328 23.08L130.605 22.3895L130.605 22.3895L131.328 23.08ZM141.368 20.84L141.101 21.8035L141.101 21.8035L141.368 20.84ZM145.728 24.64L146.645 24.2404L146.645 24.2404L145.728 24.64ZM146.288 30.32L145.296 30.196L145.293 30.2164L145.292 30.237L146.288 30.32ZM146.008 32.32V33.32H146.834L146.99 32.5088L146.008 32.32ZM134.008 32.32V31.32H132.96L133.009 32.3676L134.008 32.32ZM135.288 36.12L134.547 36.7915L134.553 36.7978L134.559 36.8039L135.288 36.12ZM142.048 36.92L142.399 37.8563L142.407 37.8534L142.415 37.8504L142.048 36.92ZM144.048 35.88L144.941 35.4286L144.397 34.3543L143.441 35.0856L144.048 35.88ZM135.288 25.84L134.51 25.2122L134.507 25.2153L135.288 25.84ZM134.128 29.08L133.133 28.9824L133.025 30.08H134.128V29.08ZM141.568 29.08V30.08H142.497L142.566 29.1539L141.568 29.08ZM140.888 25.76L140.065 26.3277L140.072 26.3372L140.078 26.3465L140.888 25.76ZM145.144 38.4991C144.468 39.0397 143.495 39.5389 142.178 39.9695L142.799 41.8705C144.255 41.3944 145.469 40.8003 146.393 40.0609L145.144 38.4991ZM142.189 39.9659C140.934 40.3597 139.582 40.56 138.128 40.56V42.56C139.768 42.56 141.323 42.3337 142.788 41.8741L142.189 39.9659ZM138.128 40.56C135.092 40.56 133.072 39.6884 131.829 38.1353L130.267 39.3847C132.012 41.5649 134.711 42.56 138.128 42.56V40.56ZM131.833 38.1407C130.522 36.4779 129.808 34.1356 129.808 31H127.808C127.808 34.4244 128.588 37.2554 130.263 39.3793L131.833 38.1407ZM129.808 31C129.808 27.6228 130.615 25.2756 132.052 23.7705L130.605 22.3895C128.682 24.4044 127.808 27.3372 127.808 31H129.808ZM132.052 23.7705C133.498 22.2551 135.569 21.44 138.408 21.44V19.44C135.168 19.44 132.518 20.3849 130.605 22.3895L132.052 23.7705ZM138.408 21.44C139.333 21.44 140.229 21.5615 141.101 21.8035L141.636 19.8765C140.587 19.5852 139.511 19.44 138.408 19.44V21.44ZM141.101 21.8035C141.931 22.0341 142.658 22.4107 143.294 22.9327L144.563 21.3873C143.705 20.6827 142.726 20.1793 141.636 19.8765L141.101 21.8035ZM143.294 22.9327C143.898 23.4296 144.41 24.1193 144.812 25.0396L146.645 24.2404C146.139 23.0807 145.451 22.117 144.563 21.3873L143.294 22.9327ZM144.812 25.0396C145.194 25.9166 145.408 27.0639 145.408 28.52H147.408C147.408 26.8828 147.169 25.4434 146.645 24.2404L144.812 25.0396ZM145.408 28.52C145.408 29.0329 145.372 29.5911 145.296 30.196L147.281 30.444C147.365 29.7689 147.408 29.1271 147.408 28.52H145.408ZM145.292 30.237C145.242 30.8382 145.154 31.4694 145.026 32.1312L146.99 32.5088C147.13 31.7839 147.228 31.0818 147.285 30.403L145.292 30.237ZM146.008 31.32H134.008V33.32H146.008V31.32ZM133.009 32.3676C133.096 34.1756 133.561 35.7027 134.547 36.7915L136.029 35.4485C135.469 34.8307 135.081 33.8244 135.007 32.2724L133.009 32.3676ZM134.559 36.8039C135.626 37.9418 137.231 38.4 139.128 38.4V36.4C137.506 36.4 136.551 36.0048 136.018 35.4361L134.559 36.8039ZM139.128 38.4C140.318 38.4 141.414 38.2259 142.399 37.8563L141.697 35.9837C140.976 36.2541 140.125 36.4 139.128 36.4V38.4ZM142.415 37.8504C143.332 37.4889 144.096 37.1021 144.656 36.6744L143.441 35.0856C143.093 35.3513 142.524 35.6577 141.682 35.9896L142.415 37.8504ZM143.156 36.3314L144.876 39.7314L146.661 38.8286L144.941 35.4286L143.156 36.3314ZM138.328 23.6C136.758 23.6 135.418 24.0868 134.51 25.2122L136.067 26.4678C136.492 25.9399 137.179 25.6 138.328 25.6V23.6ZM134.507 25.2153C133.712 26.2093 133.279 27.4926 133.133 28.9824L135.124 29.1776C135.244 27.9474 135.584 27.0707 136.069 26.4647L134.507 25.2153ZM134.128 30.08H141.568V28.08H134.128V30.08ZM142.566 29.1539C142.681 27.5944 142.452 26.2147 141.698 25.1735L140.078 26.3465C140.444 26.852 140.669 27.6856 140.571 29.0061L142.566 29.1539ZM141.711 25.1923C140.945 24.0803 139.738 23.6 138.328 23.6V25.6C139.265 25.6 139.765 25.893 140.065 26.3277L141.711 25.1923ZM161.441 41H160.441V42H161.441V41ZM160.921 26.2L160.008 26.6091L160.008 26.6091L160.921 26.2ZM156.561 25.8L157.212 26.5593L157.222 26.5505L157.232 26.5415L156.561 25.8ZM155.281 27.68L154.346 27.3253L154.281 27.4967V27.68H155.281ZM155.281 41V42H156.281V41H155.281ZM150.081 41H149.081V42H150.081V41ZM150.081 21V20H149.081V21H150.081ZM154.121 21L155.096 20.7784L154.919 20H154.121V21ZM154.721 23.64L153.746 23.8616L153.923 24.64H154.721V23.64ZM154.881 23.64V24.64H155.394L155.693 24.2236L154.881 23.64ZM157.201 21.4L156.646 20.5679L156.635 20.5753L157.201 21.4ZM164.001 21.24L163.446 22.072L163.462 22.0826L163.478 22.0926L164.001 21.24ZM165.921 23.84L164.983 24.1866L165.713 26.1615L166.782 24.348L165.921 23.84ZM168.281 21.36L167.742 20.5173L167.742 20.5173L168.281 21.36ZM174.601 20.84L174.275 21.7854L174.285 21.7887L174.601 20.84ZM176.521 22.24L175.709 22.8243L175.723 22.8428L175.737 22.8607L176.521 22.24ZM178.001 41V42H179.001V41H178.001ZM172.801 41H171.801V42H172.801V41ZM172.281 26.24L171.352 26.6114L171.36 26.6304L171.368 26.6491L172.281 26.24ZM167.841 25.8L167.17 25.0585L167.161 25.0666L167.152 25.075L167.841 25.8ZM166.641 27.88L165.684 27.59L165.641 27.7318V27.88H166.641ZM166.641 41V42H167.641V41H166.641ZM162.441 41V30.12H160.441V41H162.441ZM162.441 30.12C162.441 28.2662 162.273 26.7728 161.833 25.7909L160.008 26.6091C160.261 27.1738 160.441 28.2938 160.441 30.12H162.441ZM161.833 25.7909C161.573 25.2108 161.156 24.7509 160.594 24.449C160.048 24.1556 159.419 24.04 158.761 24.04V26.04C159.196 26.04 159.474 26.1177 159.648 26.211C159.805 26.2958 159.922 26.4159 160.008 26.6091L161.833 25.7909ZM158.761 24.04C157.659 24.04 156.669 24.3533 155.89 25.0585L157.232 26.5415C157.572 26.2333 158.05 26.04 158.761 26.04V24.04ZM155.91 25.0407C155.208 25.6424 154.691 26.4148 154.346 27.3253L156.216 28.0347C156.457 27.3985 156.793 26.9176 157.212 26.5593L155.91 25.0407ZM154.281 27.68V41H156.281V27.68H154.281ZM155.281 40H150.081V42H155.281V40ZM151.081 41V21H149.081V41H151.081ZM150.081 22H154.121V20H150.081V22ZM153.146 21.2216L153.746 23.8616L155.696 23.4184L155.096 20.7784L153.146 21.2216ZM154.721 24.64H154.881V22.64H154.721V24.64ZM155.693 24.2236C156.234 23.4713 156.921 22.8043 157.766 22.2247L156.635 20.5753C155.614 21.2757 154.755 22.102 154.069 23.0564L155.693 24.2236ZM157.755 22.2321C158.509 21.7296 159.527 21.44 160.881 21.44V19.44C159.248 19.44 157.812 19.7904 156.646 20.5679L157.755 22.2321ZM160.881 21.44C162.027 21.44 162.857 21.6791 163.446 22.072L164.555 20.4079C163.545 19.7342 162.294 19.44 160.881 19.44V21.44ZM163.478 22.0926C164.056 22.4469 164.58 23.0974 164.983 24.1866L166.859 23.4933C166.355 22.1292 165.599 21.0464 164.523 20.3874L163.478 22.0926ZM166.782 24.348C167.321 23.4351 168 22.7263 168.819 22.2027L167.742 20.5173C166.642 21.2203 165.748 22.1649 165.059 23.332L166.782 24.348ZM168.819 22.2027C169.59 21.7105 170.554 21.44 171.761 21.44V19.44C170.247 19.44 168.892 19.7828 167.742 20.5173L168.819 22.2027ZM171.761 21.44C172.808 21.44 173.637 21.5655 174.275 21.7854L174.927 19.8946C174.018 19.5812 172.954 19.44 171.761 19.44V21.44ZM174.285 21.7887C174.891 21.9908 175.355 22.3329 175.709 22.8243L177.332 21.6557C176.726 20.8138 175.911 20.2225 174.917 19.8913L174.285 21.7887ZM175.737 22.8607C176.121 23.3459 176.445 24.0573 176.664 25.0544L178.618 24.6256C178.356 23.436 177.934 22.414 177.305 21.6193L175.737 22.8607ZM176.664 25.0544C176.883 26.0517 177.001 27.3601 177.001 29H179.001C179.001 27.2799 178.879 25.8149 178.618 24.6256L176.664 25.0544ZM177.001 29V41H179.001V29H177.001ZM178.001 40H172.801V42H178.001V40ZM173.801 41V29.76H171.801V41H173.801ZM173.801 29.76C173.801 28.146 173.628 26.8006 173.193 25.8309L171.368 26.6491C171.627 27.226 171.801 28.2273 171.801 29.76H173.801ZM173.209 25.8686C172.966 25.26 172.547 24.7773 171.97 24.4621C171.412 24.1577 170.762 24.04 170.081 24.04V26.04C170.546 26.04 170.837 26.1223 171.012 26.2179C171.167 26.3027 171.276 26.42 171.352 26.6114L173.209 25.8686ZM170.081 24.04C168.961 24.04 167.954 24.3486 167.17 25.0585L168.512 26.5415C168.847 26.2381 169.334 26.04 170.081 26.04V24.04ZM167.152 25.075C166.465 25.7273 165.988 26.5851 165.684 27.59L167.598 28.17C167.827 27.4149 168.15 26.886 168.53 26.525L167.152 25.075ZM165.641 27.88V41H167.641V27.88H165.641ZM166.641 40H161.441V42H166.641V40ZM183.788 23.2L184.527 23.8738L184.532 23.8684L183.788 23.2ZM194.908 21.2L195.305 20.2819L195.305 20.2819L194.908 21.2ZM197.828 23.36L197.058 23.998L197.063 24.0035L197.067 24.0089L197.828 23.36ZM199.548 26.68L198.587 26.9547L198.589 26.9637L198.592 26.9727L199.548 26.68ZM197.668 38.84L196.924 38.1716L196.924 38.1722L197.668 38.84ZM186.588 40.8L186.985 39.8819L186.588 40.8ZM183.628 38.68L182.858 39.318L182.868 39.33L182.878 39.3416L183.628 38.68ZM181.868 35.32L180.907 35.5947L180.909 35.6037L180.912 35.6127L181.868 35.32ZM187.628 35.4L188.497 34.9039L188.497 34.9039L187.628 35.4ZM188.868 36.72L188.334 37.5655L188.36 37.5816L188.386 37.5962L188.868 36.72ZM193.788 35.68L194.617 36.2399L194.617 36.2399L193.788 35.68ZM193.868 26.56L192.986 27.0317L192.991 27.0403L193.868 26.56ZM187.748 26.28L186.948 25.68L186.948 25.68L187.748 26.28ZM182.308 31C182.308 27.7673 183.097 25.4428 184.527 23.8738L183.049 22.5262C181.173 24.5838 180.308 27.4594 180.308 31H182.308ZM184.532 23.8684C185.957 22.2828 187.981 21.44 190.748 21.44V19.44C187.542 19.44 184.926 20.4372 183.044 22.5316L184.532 23.8684ZM190.748 21.44C192.245 21.44 193.491 21.6772 194.512 22.1181L195.305 20.2819C193.979 19.7094 192.451 19.44 190.748 19.44V21.44ZM194.512 22.1181C195.548 22.5657 196.391 23.1928 197.058 23.998L198.598 22.722C197.719 21.6605 196.615 20.8477 195.305 20.2819L194.512 22.1181ZM197.067 24.0089C197.736 24.7924 198.247 25.7664 198.587 26.9547L200.51 26.4053C200.103 24.9802 199.468 23.741 198.589 22.7111L197.067 24.0089ZM198.592 26.9727C198.959 28.1714 199.148 29.5112 199.148 31H201.148C201.148 29.3422 200.938 27.8019 200.504 26.3873L198.592 26.9727ZM199.148 31C199.148 34.2316 198.36 36.5736 196.924 38.1716L198.412 39.5084C200.283 37.4264 201.148 34.5417 201.148 31H199.148ZM196.924 38.1722C195.529 39.7274 193.52 40.56 190.748 40.56V42.56C193.95 42.56 196.554 41.5792 198.413 39.5078L196.924 38.1722ZM190.748 40.56C189.251 40.56 188.006 40.3228 186.985 39.8819L186.192 41.7181C187.518 42.2906 189.045 42.56 190.748 42.56V40.56ZM186.985 39.8819C185.939 39.4303 185.075 38.8083 184.378 38.0184L182.878 39.3416C183.781 40.365 184.891 41.1564 186.192 41.7181L186.985 39.8819ZM184.398 38.042C183.719 37.2225 183.191 36.2237 182.824 35.0273L180.912 35.6127C181.346 37.0296 181.991 38.2708 182.858 39.318L184.398 38.042ZM182.83 35.0453C182.486 33.8407 182.308 32.4947 182.308 31H180.308C180.308 32.652 180.504 34.1859 180.907 35.5947L182.83 35.0453ZM185.668 31C185.668 31.94 185.754 32.8245 185.93 33.6495L187.886 33.2305C187.743 32.5622 187.668 31.82 187.668 31H185.668ZM185.93 33.6495C186.108 34.4788 186.381 35.2321 186.76 35.8961L188.497 34.9039C188.236 34.4479 188.028 33.8945 187.886 33.2305L185.93 33.6495ZM186.76 35.8961C187.155 36.5871 187.679 37.1515 188.334 37.5655L189.402 35.8745C189.044 35.6485 188.742 35.3329 188.497 34.9039L186.76 35.8961ZM188.386 37.5962C189.092 37.9844 189.891 38.16 190.748 38.16V36.16C190.166 36.16 189.711 36.0422 189.35 35.8438L188.386 37.5962ZM190.748 38.16C192.386 38.16 193.735 37.5443 194.617 36.2399L192.96 35.1201C192.508 35.789 191.831 36.16 190.748 36.16V38.16ZM194.617 36.2399C195.453 35.0021 195.788 33.1952 195.788 31H193.788C193.788 33.0715 193.457 34.3846 192.96 35.1201L194.617 36.2399ZM195.788 31C195.788 29.0614 195.467 27.3976 194.745 26.0797L192.991 27.0403C193.496 27.9624 193.788 29.2586 193.788 31H195.788ZM194.75 26.0883C194.361 25.3614 193.816 24.783 193.111 24.3943C192.412 24.009 191.611 23.84 190.748 23.84V25.84C191.352 25.84 191.804 25.9576 192.146 26.1457C192.48 26.3303 192.762 26.6119 192.986 27.0317L194.75 26.0883ZM190.748 23.84C189.178 23.84 187.871 24.4493 186.948 25.68L188.548 26.88C189.065 26.1907 189.759 25.84 190.748 25.84V23.84ZM186.948 25.68C186.029 26.906 185.668 28.7526 185.668 31H187.668C187.668 28.8741 188.028 27.574 188.548 26.88L186.948 25.68ZM201.673 21V20H200.673V21H201.673ZM204.433 21V22H205.433V21H204.433ZM204.433 17.24L204.159 16.2782L203.433 16.4849V17.24H204.433ZM209.633 15.76H210.633V14.4357L209.359 14.7982L209.633 15.76ZM209.633 21H208.633V22H209.633V21ZM214.513 21H215.513V20H214.513V21ZM214.513 25.4V26.4H215.513V25.4H214.513ZM209.633 25.4V24.4H208.633V25.4H209.633ZM210.033 36.08L209.116 36.4787L209.126 36.5033L209.138 36.5272L210.033 36.08ZM212.993 36.8L212.735 35.8338L212.726 35.836L212.718 35.8385L212.993 36.8ZM214.313 36.32L215.287 36.0959L215.015 34.9134L213.907 35.4062L214.313 36.32ZM215.233 40.32L215.666 41.221L216.386 40.8744L216.207 40.0959L215.233 40.32ZM212.713 41.2L212.955 42.1701L212.955 42.1701L212.713 41.2ZM205.713 40.16L204.965 40.8244L204.975 40.8353L204.985 40.846L205.713 40.16ZM204.433 25.4H205.433V24.4H204.433V25.4ZM201.673 25.4H200.673V26.4H201.673V25.4ZM201.673 22H204.433V20H201.673V22ZM205.433 21V17.24H203.433V21H205.433ZM204.706 18.2018L209.906 16.7218L209.359 14.7982L204.159 16.2782L204.706 18.2018ZM208.633 15.76V21H210.633V15.76H208.633ZM209.633 22H214.513V20H209.633V22ZM213.513 21V25.4H215.513V21H213.513ZM214.513 24.4H209.633V26.4H214.513V24.4ZM208.633 25.4V33.08H210.633V25.4H208.633ZM208.633 33.08C208.633 34.488 208.762 35.6649 209.116 36.4787L210.95 35.6813C210.77 35.2685 210.633 34.4453 210.633 33.08H208.633ZM209.138 36.5272C209.368 36.9873 209.712 37.364 210.171 37.6162C210.62 37.8632 211.122 37.96 211.633 37.96V35.96C211.37 35.96 211.219 35.9102 211.135 35.8638C211.06 35.8226 210.99 35.7594 210.927 35.6328L209.138 36.5272ZM211.633 37.96C212.227 37.96 212.778 37.9012 213.267 37.7615L212.718 35.8385C212.46 35.9121 212.105 35.96 211.633 35.96V37.96ZM213.25 37.7662C213.712 37.643 214.203 37.4631 214.719 37.2338L213.907 35.4062C213.462 35.6036 213.073 35.7437 212.735 35.8338L213.25 37.7662ZM213.338 36.5441L214.258 40.5441L216.207 40.0959L215.287 36.0959L213.338 36.5441ZM214.799 39.419C214.153 39.7302 213.379 40.0026 212.47 40.2299L212.955 42.1701C213.966 41.9174 214.873 41.6031 215.666 41.221L214.799 39.419ZM212.47 40.2299C211.589 40.4501 210.697 40.56 209.793 40.56V42.56C210.861 42.56 211.916 42.4299 212.955 42.1701L212.47 40.2299ZM209.793 40.56C208.107 40.56 207.062 40.133 206.44 39.474L204.985 40.846C206.124 42.0536 207.799 42.56 209.793 42.56V40.56ZM206.46 39.4956C205.849 38.8082 205.433 37.5497 205.433 35.48H203.433C203.433 37.7303 203.87 39.5918 204.965 40.8244L206.46 39.4956ZM205.433 35.48V25.4H203.433V35.48H205.433ZM204.433 24.4H201.673V26.4H204.433V24.4ZM202.673 25.4V21H200.673V25.4H202.673ZM233.503 39.28L234.127 40.0609L234.762 39.5534L234.395 38.8286L233.503 39.28ZM230.223 40.92L230.522 41.8742L230.533 41.8705L230.223 40.92ZM218.783 38.76L217.997 39.3793L218.002 39.3847L218.783 38.76ZM219.063 23.08L218.339 22.3895L218.339 22.3895L219.063 23.08ZM229.103 20.84L228.835 21.8035L228.835 21.8035L229.103 20.84ZM233.463 24.64L234.379 24.2404L234.379 24.2404L233.463 24.64ZM234.023 30.32L233.03 30.196L233.028 30.2164L233.026 30.237L234.023 30.32ZM233.743 32.32V33.32H234.569L234.725 32.5088L233.743 32.32ZM221.743 32.32V31.32H220.694L220.744 32.3676L221.743 32.32ZM223.023 36.12L222.282 36.7915L222.287 36.7978L222.293 36.8039L223.023 36.12ZM229.783 36.92L230.134 37.8563L230.142 37.8534L230.149 37.8504L229.783 36.92ZM231.783 35.88L232.675 35.4286L232.132 34.3543L231.175 35.0856L231.783 35.88ZM223.023 25.84L222.244 25.2122L222.242 25.2153L223.023 25.84ZM221.863 29.08L220.867 28.9824L220.76 30.08H221.863V29.08ZM229.303 29.08V30.08H230.231L230.3 29.1539L229.303 29.08ZM228.623 25.76L227.799 26.3277L227.806 26.3372L227.813 26.3465L228.623 25.76ZM232.878 38.4991C232.202 39.0397 231.229 39.5389 229.912 39.9695L230.533 41.8705C231.99 41.3944 233.203 40.8003 234.127 40.0609L232.878 38.4991ZM229.923 39.9659C228.668 40.3597 227.316 40.56 225.863 40.56V42.56C227.502 42.56 229.057 42.3337 230.522 41.8741L229.923 39.9659ZM225.863 40.56C222.826 40.56 220.806 39.6884 219.564 38.1353L218.002 39.3847C219.746 41.5649 222.446 42.56 225.863 42.56V40.56ZM219.568 38.1407C218.256 36.4779 217.543 34.1356 217.543 31H215.543C215.543 34.4244 216.322 37.2554 217.997 39.3793L219.568 38.1407ZM217.543 31C217.543 27.6228 218.349 25.2756 219.786 23.7705L218.339 22.3895C216.416 24.4044 215.543 27.3372 215.543 31H217.543ZM219.786 23.7705C221.232 22.2551 223.303 21.44 226.143 21.44V19.44C222.902 19.44 220.253 20.3849 218.339 22.3895L219.786 23.7705ZM226.143 21.44C227.067 21.44 227.964 21.5615 228.835 21.8035L229.37 19.8765C228.322 19.5852 227.245 19.44 226.143 19.44V21.44ZM228.835 21.8035C229.665 22.0341 230.392 22.4107 231.028 22.9327L232.297 21.3873C231.44 20.6827 230.46 20.1793 229.37 19.8765L228.835 21.8035ZM231.028 22.9327C231.633 23.4296 232.145 24.1193 232.546 25.0396L234.379 24.2404C233.874 23.0807 233.186 22.117 232.297 21.3873L231.028 22.9327ZM232.546 25.0396C232.928 25.9166 233.143 27.0639 233.143 28.52H235.143C235.143 26.8828 234.904 25.4434 234.379 24.2404L232.546 25.0396ZM233.143 28.52C233.143 29.0329 233.106 29.5911 233.03 30.196L235.015 30.444C235.099 29.7689 235.143 29.1271 235.143 28.52H233.143ZM233.026 30.237C232.976 30.8382 232.888 31.4694 232.761 32.1312L234.725 32.5088C234.864 31.7839 234.963 31.0818 235.019 30.403L233.026 30.237ZM233.743 31.32H221.743V33.32H233.743V31.32ZM220.744 32.3676C220.83 34.1756 221.295 35.7027 222.282 36.7915L223.764 35.4485C223.204 34.8307 222.815 33.8244 222.742 32.2724L220.744 32.3676ZM222.293 36.8039C223.36 37.9418 224.965 38.4 226.863 38.4V36.4C225.24 36.4 224.285 36.0048 223.752 35.4361L222.293 36.8039ZM226.863 38.4C228.053 38.4 229.148 38.2259 230.134 37.8563L229.432 35.9837C228.71 36.2541 227.859 36.4 226.863 36.4V38.4ZM230.149 37.8504C231.067 37.4889 231.831 37.1021 232.39 36.6744L231.175 35.0856C230.828 35.3513 230.259 35.6577 229.416 35.9896L230.149 37.8504ZM230.89 36.3314L232.61 39.7314L234.395 38.8286L232.675 35.4286L230.89 36.3314ZM226.063 23.6C224.492 23.6 223.152 24.0868 222.244 25.2122L223.801 26.4678C224.227 25.9399 224.913 25.6 226.063 25.6V23.6ZM222.242 25.2153C221.447 26.2093 221.013 27.4926 220.867 28.9824L222.858 29.1776C222.978 27.9474 223.319 27.0707 223.804 26.4647L222.242 25.2153ZM221.863 30.08H229.303V28.08H221.863V30.08ZM230.3 29.1539C230.415 27.5944 230.187 26.2147 229.433 25.1735L227.813 26.3465C228.179 26.852 228.403 27.6856 228.305 29.0061L230.3 29.1539ZM229.446 25.1923C228.679 24.0803 227.473 23.6 226.063 23.6V25.6C226.999 25.6 227.5 25.893 227.799 26.3277L229.446 25.1923Z" fill="#25283D"/>
</g>
<defs>
<filter id="filter0_d" x="-3" y="0" width="356" height="181" filterUnits="userSpaceOnUse" color-interpolation-filters="sRGB">
<feFlood flood-opacity="0" result="BackgroundImageFix"/>
<feColorMatrix in="SourceAlpha" type="matrix" values="0 0 0 0 0 0 0 0 0 0 0 0 0 0 0 0 0 0 127 0" result="hardAlpha"/>
<feOffset dy="4"/>
<feGaussianBlur stdDeviation="2"/>
<feComposite in2="hardAlpha" operator="out"/>
<feColorMatrix type="matrix" values="0 0 0 0 0 0 0 0 0 0 0 0 0 0 0 0 0 0 0.25 0"/>
<feBlend mode="normal" in2="BackgroundImageFix" result="effect1_dropShadow"/>
<feBlend mode="normal" in="SourceGraphic" in2="effect1_dropShadow" result="shape"/>
</filter>
</defs>
</svg>
